<?xml version="1.0" encoding="UTF-8" standalone="no"?>
<!-- Created with Inkscape (http://www.inkscape.org/) -->

<svg
   width="2.3333333in"
   height="3.9348719in"
   viewBox="0 0 209.99999 354.13848"
   id="svg2"
   version="1.1"
   inkscape:version="1.1.2 (b8e25be833, 2022-02-05)"
   sodipodi:docname="discard.svg"
   xmlns:inkscape="http://www.inkscape.org/namespaces/inkscape"
   xmlns:sodipodi="http://sodipodi.sourceforge.net/DTD/sodipodi-0.dtd"
   xmlns="http://www.w3.org/2000/svg"
   xmlns:svg="http://www.w3.org/2000/svg"
   xmlns:rdf="http://www.w3.org/1999/02/22-rdf-syntax-ns#"
   xmlns:cc="http://creativecommons.org/ns#"
   xmlns:dc="http://purl.org/dc/elements/1.1/">
  <defs
     id="defs4" />
  <sodipodi:namedview
     id="base"
     pagecolor="#ffffff"
     bordercolor="#666666"
     borderopacity="1.0"
     inkscape:pageopacity="0.0"
     inkscape:pageshadow="2"
     inkscape:zoom="2.0304911"
     inkscape:cx="46.540465"
     inkscape:cy="207.83149"
     inkscape:document-units="in"
     inkscape:current-layer="g20"
     showgrid="true"
     units="in"
     inkscape:showpageshadow="false"
     showguides="false"
     inkscape:window-width="1920"
     inkscape:window-height="1009"
     inkscape:window-x="-8"
     inkscape:window-y="-8"
     inkscape:window-maximized="1"
     objecttolerance="10000"
     inkscape:snap-bbox="true"
     guidetolerance="10000"
     inkscape:object-nodes="true"
     fit-margin-top="0"
     fit-margin-left="0"
     fit-margin-right="0"
     fit-margin-bottom="0"
     inkscape:bbox-nodes="true"
     inkscape:snap-global="false"
     inkscape:pagecheckerboard="0" />
  <metadata
     id="metadata7">
    <rdf:RDF>
      <cc:Work
         rdf:about="">
        <dc:format>image/svg+xml</dc:format>
        <dc:type
           rdf:resource="http://purl.org/dc/dcmitype/StillImage" />
      </cc:Work>
    </rdf:RDF>
  </metadata>
  <g
     inkscape:label="Layer 1"
     inkscape:groupmode="layer"
     id="layer1"
     transform="translate(20.583163,-827.44603)">
    <g
       id="g20"
       transform="matrix(0.7,0,0,0.7,15,300.70865)">
      <rect
         y="761.65759"
         x="-41.657467"
         height="381.52893"
         width="281.64874"
         id="rect4175"
         style="opacity:1;fill:none;fill-opacity:1;stroke:#001bff;stroke-width:18.35124588;stroke-linecap:round;stroke-linejoin:round;stroke-miterlimit:4;stroke-dasharray:none;stroke-opacity:1" />
      <rect
         y="1143.9858"
         x="-41.643856"
         height="105.24043"
         width="281.62152"
         id="rect4175-7"
         style="opacity:1;fill:#ffffff;fill-opacity:1;stroke:#001bff;stroke-width:18.33560944;stroke-linecap:round;stroke-linejoin:round;stroke-miterlimit:4;stroke-dasharray:none;stroke-opacity:1" />
      <g
         aria-label="DISCARD"
         id="text8263"
         style="font-size:44.6429px;line-height:1.25;stroke-width:1.33929;fill:#280b0b;fill-opacity:1">
        <path
           d="m 24.660347,1196.6387 q 0,4.4251 -1.940048,8.0218 -1.918249,3.5967 -5.122598,5.5803 -2.223425,1.3733 -4.97001,1.9837 -2.7247864,0.6103 -7.1934359,0.6103 H -2.761902 v -32.4576 h 8.108964 q 4.752027,0 7.542208,0.6975 2.81198,0.6758 4.752028,1.8747 3.31334,2.0708 5.166195,5.515 1.852854,3.4441 1.852854,8.1743 z m -4.512246,-0.065 q 0,-3.8147 -1.329696,-6.4305 -1.329695,-2.6158 -3.967288,-4.1199 -1.91825,-1.0899 -4.076281,-1.504 -2.1580305,-0.436 -5.1661946,-0.436 h -4.054482 v 25.0462 h 4.054482 q 3.1171556,0 5.4277746,-0.4577 2.332417,-0.4578 4.272465,-1.7003 2.41961,-1.5477 3.618516,-4.0763 1.220704,-2.5286 1.220704,-6.3215 z"
           id="path11619"
           style="fill:#280b0b;fill-opacity:1" />
        <path
           d="M 43.079902,1212.8348 H 30.262507 v -3.3133 h 4.250667 v -25.831 h -4.250667 v -3.3133 h 12.817395 v 3.3133 h -4.250667 v 25.831 h 4.250667 z"
           id="path11621"
           style="fill:#280b0b;fill-opacity:1" />
        <path
           d="m 74.011676,1203.5706 q 0,1.8964 -0.89373,3.7493 -0.871931,1.8528 -2.463207,3.1389 -1.743863,1.3951 -4.07628,2.1799 -2.310619,0.7847 -5.580362,0.7847 -3.509525,0 -6.321504,-0.654 -2.790182,-0.6539 -5.689354,-1.94 v -5.406 h 0.305176 q 2.463207,2.0491 5.689354,3.1608 3.226147,1.1117 6.059924,1.1117 4.010886,0 6.234311,-1.5041 2.245224,-1.5041 2.245224,-4.0109 0,-2.158 -1.068116,-3.1825 -1.046318,-1.0246 -3.204349,-1.5913 -1.634871,-0.436 -3.553121,-0.7194 -1.896451,-0.2833 -4.032684,-0.7193 -4.316061,-0.9155 -6.408697,-3.1172 -2.070838,-2.2234 -2.070838,-5.7765 0,-4.0763 3.44413,-6.6703 3.44413,-2.6158 8.741115,-2.6158 3.422331,0 6.277907,0.654 2.855576,0.6539 5.057204,1.6131 v 5.1008 h -0.305176 q -1.852855,-1.5695 -4.882817,-2.594 -3.008164,-1.0464 -6.168917,-1.0464 -3.465928,0 -5.580362,1.4387 -2.092636,1.4387 -2.092636,3.7057 0,2.0273 1.046318,3.1826 1.046318,1.1553 3.683911,1.7656 1.395091,0.3052 3.967289,0.7412 2.572198,0.436 4.359658,0.8937 3.618516,0.9591 5.449573,2.8992 1.831056,1.94 1.831056,5.4278 z"
           id="path11623"
           style="fill:#280b0b;fill-opacity:1" />
        <path
           d="m 106.01157,1210.4806 q -1.19891,0.5232 -2.17983,0.9809 -0.95913,0.4578 -2.5286,0.9592 -1.329698,0.4141 -2.899175,0.6975 -1.547678,0.3052 -3.422331,0.3052 -3.531323,0 -6.430496,-0.9809 -2.877374,-1.0028 -5.013607,-3.1172 -2.092636,-2.0708 -3.269743,-5.2534 -1.177108,-3.2043 -1.177108,-7.4332 0,-4.0109 1.133511,-7.1716 1.133511,-3.1608 3.269744,-5.3406 2.070837,-2.1144 4.991808,-3.2262 2.942769,-1.1117 6.517689,-1.1117 2.615795,0 5.209788,0.6322 2.6158,0.6321 5.79835,2.2234 v 5.1226 h -0.32698 q -2.68119,-2.2452 -5.31878,-3.2697 -2.637592,-1.0246 -5.645756,-1.0246 -2.463207,0 -4.446851,0.8066 -1.961846,0.7847 -3.509525,2.4632 -1.504082,1.6349 -2.354215,4.1417 -0.828335,2.485 -0.828335,5.7547 0,3.4223 0.915528,5.8855 0.937326,2.4633 2.397812,4.0109 1.52588,1.6131 3.553121,2.3978 2.04904,0.763 4.316062,0.763 3.117155,0 5.841939,-1.0681 2.72479,-1.0681 5.1008,-3.2044 h 0.30518 z"
           id="path11625"
           style="fill:#280b0b;fill-opacity:1" />
        <path
           d="m 137.70628,1212.8348 h -4.59944 l -3.18255,-9.0463 h -14.0381 l -3.18255,9.0463 h -4.38145 l 11.81467,-32.4576 h 5.75475 z m -9.11168,-12.752 -5.68936,-15.9345 -5.71115,15.9345 z"
           id="path11627"
           style="fill:#280b0b;fill-opacity:1" />
        <path
           d="m 169.48818,1212.8348 h -5.60216 l -10.85555,-12.9045 h -6.08172 v 12.9045 h -4.31606 v -32.4576 h 9.08989 q 2.94277,0 4.90461,0.3924 1.96185,0.3705 3.53133,1.3514 1.76566,1.1118 2.74658,2.812 1.00272,1.6785 1.00272,4.2725 0,3.5095 -1.76566,5.8855 -1.76566,2.3542 -4.86102,3.5532 z m -10.0926,-23.3241 q 0,-1.3951 -0.50137,-2.4632 -0.47956,-1.09 -1.61307,-1.8311 -0.93733,-0.6321 -2.22342,-0.8719 -1.2861,-0.2616 -3.02997,-0.2616 h -5.079 v 12.2506 h 4.35966 q 2.04904,0 3.57492,-0.3487 1.52588,-0.3706 2.594,-1.3515 0.98092,-0.9156 1.43868,-2.0927 0.47957,-1.1989 0.47957,-3.0299 z"
           id="path11629"
           style="fill:#280b0b;fill-opacity:1" />
        <path
           d="m 201.09571,1196.6387 q 0,4.4251 -1.94005,8.0218 -1.91825,3.5967 -5.1226,5.5803 -2.22342,1.3733 -4.97001,1.9837 -2.72478,0.6103 -7.19343,0.6103 h -8.19616 v -32.4576 h 8.10897 q 4.75202,0 7.5422,0.6975 2.81198,0.6758 4.75203,1.8747 3.31334,2.0708 5.1662,5.515 1.85285,3.4441 1.85285,8.1743 z m -4.51225,-0.065 q 0,-3.8147 -1.32969,-6.4305 -1.3297,-2.6158 -3.96729,-4.1199 -1.91825,-1.0899 -4.07628,-1.504 -2.15803,-0.436 -5.16619,-0.436 h -4.05449 v 25.0462 h 4.05449 q 3.11715,0 5.42777,-0.4577 2.33242,-0.4578 4.27246,-1.7003 2.41961,-1.5477 3.61852,-4.0763 1.2207,-2.5286 1.2207,-6.3215 z"
           id="path11631"
           style="fill:#280b0b;fill-opacity:1" />
      </g>
    </g>
  </g>
</svg>
