<?xml version="1.0" encoding="UTF-8" standalone="no"?>
<svg
   width="1478.702"
   height="314.92401"
   viewBox="0 0 1478.702 314.92398"
   id="svg2"
   version="1.1"
   inkscape:version="1.2.2 (b0a8486541, 2022-12-01)"
   sodipodi:docname="reserve-top.svg"
   xmlns:inkscape="http://www.inkscape.org/namespaces/inkscape"
   xmlns:sodipodi="http://sodipodi.sourceforge.net/DTD/sodipodi-0.dtd"
   xmlns="http://www.w3.org/2000/svg"
   xmlns:svg="http://www.w3.org/2000/svg"
   xmlns:rdf="http://www.w3.org/1999/02/22-rdf-syntax-ns#"
   xmlns:cc="http://creativecommons.org/ns#"
   xmlns:dc="http://purl.org/dc/elements/1.1/">
  <defs
     id="defs4" />
  <sodipodi:namedview
     id="base"
     pagecolor="#ffffff"
     bordercolor="#3bff48"
     borderopacity="1"
     inkscape:pageopacity="0"
     inkscape:pageshadow="2"
     inkscape:zoom="0.78109043"
     inkscape:cx="744.47206"
     inkscape:cy="263.73387"
     inkscape:document-units="in"
     inkscape:current-layer="g847"
     showgrid="true"
     units="pc"
     inkscape:showpageshadow="false"
     showguides="false"
     inkscape:window-width="1920"
     inkscape:window-height="1031"
     inkscape:window-x="1920"
     inkscape:window-y="24"
     inkscape:window-maximized="1"
     objecttolerance="10000"
     inkscape:snap-bbox="true"
     guidetolerance="10000"
     inkscape:object-nodes="true"
     inkscape:snap-nodes="false"
     inkscape:bbox-paths="true"
     inkscape:bbox-nodes="true"
     inkscape:snap-bbox-midpoints="false"
     inkscape:snap-others="false"
     fit-margin-top="0"
     fit-margin-left="0"
     fit-margin-right="0"
     fit-margin-bottom="0"
     inkscape:snap-grids="false"
     inkscape:snap-global="true"
     inkscape:snap-page="true"
     borderlayer="true"
     showborder="true"
     inkscape:document-rotation="0"
     inkscape:pagecheckerboard="0"
     inkscape:deskcolor="#d1d1d1" />
  <metadata
     id="metadata7">
    <rdf:RDF>
      <cc:Work
         rdf:about="">
        <dc:format>image/svg+xml</dc:format>
        <dc:type
           rdf:resource="http://purl.org/dc/dcmitype/StillImage" />
      </cc:Work>
    </rdf:RDF>
  </metadata>
  <g
     inkscape:label="Layer 1"
     inkscape:groupmode="layer"
     id="layer1"
     transform="translate(673.98113,-659.55956)">
    <g
       id="g4158"
       transform="matrix(2,0,0,2,-1800,-1412.3623)">
      <g
         id="g4546"
         transform="matrix(1.7904799,0,0,1.1122383,987.19986,-333.31297)"
         style="fill:#b3b3b3" />
      <g
         id="g847"
         transform="matrix(1.1,0,0,1.1,-110.27421,-123.26047)">
        <rect
           transform="matrix(0,-1,-1,0,0,0)"
           y="-1281.1805"
           x="-1193.9521"
           height="666.07178"
           width="137.08182"
           id="rect4183-8-5-9-3-6-3-7-5-6-1-7-1-1-3-9-7-2"
           style="fill:#ffffff;fill-opacity:1;stroke:#008000;stroke-width:6.06545;stroke-linecap:round;stroke-linejoin:round;stroke-miterlimit:4;stroke-dasharray:none;stroke-opacity:1"
           ry="0" />
        <path
           id="path283"
           style="color:#000000;fill:#008000;fill-opacity:0.510549;fill-rule:evenodd;stroke-linecap:round;-inkscape-stroke:none"
           d="m 663.18754,1176.5632 -30.6898,-53.157 h 12.50621 l 0.004,-0.2574 -0.002,0.2574 c 0,-7.246 1.56577,-17.5025 10.68537,-28.908 9.11958,-11.4055 26.31558,-20.4664 49.40429,-20.2406 h 0.26811 l 0.269,0.011 c 5.36656,0.2113 28.54902,-0.998 49.45756,0.01 a 18.181801,18.181801 0 0 1 17.28693,19.0332 18.181801,18.181801 0 0 1 -19.0332,17.2869 c -17.83259,-0.8575 -37.19045,0.4222 -48.68963,0.023 0.03,3e-4 0.056,-0 0.0861,-9e-4 l -0.53711,-0.012 c 0.14403,0.01 0.30438,0.01 0.45099,0.013 -14.59646,-0.1269 -18.25984,3.7104 -20.56019,6.5874 -1.60925,2.0126 -2.27075,5.1348 -2.54084,6.1976 h 12.32511 z" />
        <path
           id="path4788-2"
           style="fill:#008000;fill-opacity:0.509804;stroke:none;stroke-width:10.3306;stroke-dasharray:none;stroke-dashoffset:0;stroke-opacity:0.510549"
           inkscape:transform-center-x="19.490924"
           inkscape:transform-center-y="-0.00054735606"
           d="m 833.26832,1123.1177 -53.15606,-30.6898 53.15606,-30.6898 v 12.4858 c 90.67709,-0.6394 337.16248,0.693 409.16098,0.076 l 21.7587,-12.5622 v 61.3796 l -21.598,-12.4689 c -18.3171,0.1563 -46.7393,0.1968 -81.629,0.1678 -104.9313,-0.087 -260.3463,-0.7197 -327.69268,-0.2521 z" />
      </g>
    </g>
  </g>
</svg>
