<?xml version="1.0" encoding="UTF-8" standalone="no"?>
<svg
   width="1641.0404"
   height="314.92389"
   viewBox="0 0 1641.0403 314.92386"
   id="svg2"
   version="1.1"
   inkscape:version="1.2.2 (b0a8486541, 2022-12-01)"
   sodipodi:docname="reserve.svg"
   xml:space="preserve"
   xmlns:inkscape="http://www.inkscape.org/namespaces/inkscape"
   xmlns:sodipodi="http://sodipodi.sourceforge.net/DTD/sodipodi-0.dtd"
   xmlns="http://www.w3.org/2000/svg"
   xmlns:svg="http://www.w3.org/2000/svg"
   xmlns:rdf="http://www.w3.org/1999/02/22-rdf-syntax-ns#"
   xmlns:cc="http://creativecommons.org/ns#"
   xmlns:dc="http://purl.org/dc/elements/1.1/"><defs
     id="defs4" /><sodipodi:namedview
     id="base"
     pagecolor="#ffffff"
     bordercolor="#3bff48"
     borderopacity="1"
     inkscape:pageopacity="0"
     inkscape:pageshadow="2"
     inkscape:zoom="0.5002625"
     inkscape:cx="564.70353"
     inkscape:cy="59.968517"
     inkscape:document-units="in"
     inkscape:current-layer="layer1"
     showgrid="true"
     units="pc"
     inkscape:showpageshadow="false"
     showguides="false"
     inkscape:window-width="1920"
     inkscape:window-height="1031"
     inkscape:window-x="1920"
     inkscape:window-y="24"
     inkscape:window-maximized="1"
     objecttolerance="10000"
     inkscape:snap-bbox="true"
     guidetolerance="10000"
     inkscape:object-nodes="true"
     inkscape:snap-nodes="false"
     inkscape:bbox-paths="true"
     inkscape:bbox-nodes="true"
     inkscape:snap-bbox-midpoints="false"
     inkscape:snap-others="false"
     fit-margin-top="0"
     fit-margin-left="0"
     fit-margin-right="0"
     fit-margin-bottom="0"
     inkscape:snap-grids="false"
     inkscape:snap-global="true"
     inkscape:snap-page="true"
     borderlayer="true"
     showborder="false"
     inkscape:document-rotation="0"
     inkscape:pagecheckerboard="0"
     inkscape:deskcolor="#d1d1d1" /><metadata
     id="metadata7"><rdf:RDF><cc:Work
         rdf:about=""><dc:format>image/svg+xml</dc:format><dc:type
           rdf:resource="http://purl.org/dc/dcmitype/StillImage" /></cc:Work></rdf:RDF></metadata><g
     inkscape:label="Layer 1"
     inkscape:groupmode="layer"
     id="layer1"
     transform="translate(673.98114,-659.55948)"><rect
       style="fill:#ff0000;stroke:none;stroke-width:13.344;stroke-linecap:round"
       id="rect4378"
       width="1466.2887"
       height="297.95309"
       x="-669.07404"
       y="667.79462" /><g
       id="g4546"
       transform="matrix(3.5809598,0,0,2.2244766,174.39972,-2078.9882)"
       style="fill:#b3b3b3" /><path
       id="path2873"
       style="color:#000000;fill:#ff0000;stroke-width:2.2;stroke-linecap:round;stroke-linejoin:round;-inkscape-stroke:none"
       d="M -667.30731 659.55948 C -670.99347 659.55884 -673.98183 662.54715 -673.98114 666.23331 L -673.98114 967.81336 C -673.98014 971.49796 -670.99192 974.48392 -667.30731 974.48328 L 751.50508 974.48328 L 798.04609 974.48328 L 805.26093 974.48328 L 846.50507 974.48328 L 952.99725 974.48328 C 960.68864 974.48328 966.88201 968.29208 966.88201 960.60047 L 966.88201 673.44229 C 966.88201 665.7509 960.68864 659.55948 952.99725 659.55948 L 868.57147 659.55948 L 805.26093 659.55948 L 798.04609 659.55948 L 773.57148 659.55948 L -667.30731 659.55948 z M -660.63934 672.90128 L 791.37812 672.90128 L 791.37812 673.40323 C 791.37812 673.42523 791.37617 673.42909 791.37617 673.44229 L 791.37617 960.60047 C 791.37617 960.62247 791.37812 960.62829 791.37812 960.64149 L 791.37812 961.14149 L -660.63934 961.14149 L -660.63934 672.90128 z M 809.02851 705.02237 L 949.22772 705.02237 A 4.5678915 4.5678915 0 0 1 953.79608 709.58877 L 953.79608 924.45399 A 4.5678915 4.5678915 0 0 1 949.22772 929.02235 L 809.02851 929.02235 A 4.5678915 4.5678915 0 0 1 804.4621 924.45399 L 804.4621 709.58877 A 4.5678915 4.5678915 0 0 1 809.02851 705.02237 z " /><path
       id="path283"
       style="color:#000000;fill:#ffff00;fill-opacity:1;fill-rule:evenodd;stroke-width:2.2;stroke-linecap:round;-inkscape-stroke:none"
       d="m -561.53581,704.48726 -67.51756,116.9454 h 27.51366 l 0.009,0.56628 -0.004,-0.56628 c 0,15.9412 3.44469,38.5055 23.50781,63.5976 20.06308,25.0921 57.89428,45.02608 108.68944,44.52932 h 0.58984 l 0.5918,-0.0242 c 11.80644,-0.46486 62.80785,2.1956 108.80664,-0.022 a 39.999962,39.999962 0 0 0 38.03124,-41.87304 39.999962,39.999962 0 0 0 -41.87304,-38.03118 c -39.2317,1.8865 -81.81899,-0.92884 -107.11718,-0.0506 0.066,-6.6e-4 0.1232,0 0.18942,0.002 l -1.18165,0.0264 c 0.31687,-0.022 0.66964,-0.022 0.99218,-0.0286 -32.11221,0.27918 -40.17165,-8.16288 -45.23242,-14.49228 -3.54035,-4.42772 -4.99565,-11.29656 -5.58984,-13.63472 h 27.11524 z" /><path
       id="path4788-2"
       style="fill:#ffff00;fill-opacity:0.99737948;stroke:none;stroke-width:22.7273;stroke-dasharray:none;stroke-dashoffset:0;stroke-opacity:0.510549"
       inkscape:transform-center-x="19.490879"
       inkscape:transform-center-y="7.5572118e-05"
       d="m -187.35809,822.0674 -116.94335,67.51758 116.94335,67.51757 V 929.6338 c 199.489576,1.40666 741.75756,-1.52456 900.15424,-0.16797 l 47.86914,27.63672 V 822.0674 l -47.51562,27.43164 c -40.29779,-0.34377 -102.82649,-0.43305 -179.58398,-0.36914 -230.84885,0.19052 -572.761751,1.5834 -720.92378,0.55469 z" /><rect
       style="fill:#ff0000;fill-opacity:0.54902;stroke-width:13.344;stroke-linecap:round"
       id="rect472"
       width="13.5"
       height="13.5"
       x="-673.98108"
       y="659.55963" /><g
       aria-label="SHIP"
       transform="matrix(0,0.74666665,-0.74666665,0,615.01105,91.018409)"
       id="text2762"
       style="font-weight:bold;font-size:85.7698px;line-height:1.25;-inkscape-font-specification:'sans-serif, Bold';fill:#ffffff;stroke-width:1.33929" /><rect
       style="fill:#008000;fill-opacity:0.509804;stroke-width:13.5;stroke-linecap:round"
       id="rect3986"
       width="174.40239"
       height="262.40366"
       x="792.65674"
       y="685.81952" /><text
       xml:space="preserve"
       style="font-style:normal;font-variant:normal;font-weight:600;font-stretch:normal;font-size:79.3737px;line-height:1.25;font-family:FreeSans;-inkscape-font-specification:'FreeSans, Semi-Bold';font-variant-ligatures:normal;font-variant-caps:normal;font-variant-numeric:normal;font-variant-east-asian:normal;fill:#ffffff;fill-opacity:1;stroke:none;stroke-width:0.999999;stroke-opacity:1"
       x="480.70874"
       y="758.69916"
       id="text15701"
       transform="scale(0.9948168,1.0052102)"><tspan
         sodipodi:role="line"
         id="tspan15699"
         style="font-style:normal;font-variant:normal;font-weight:600;font-stretch:normal;font-size:79.3737px;font-family:FreeSans;-inkscape-font-specification:'FreeSans, Semi-Bold';font-variant-ligatures:normal;font-variant-caps:normal;font-variant-numeric:normal;font-variant-east-asian:normal;fill:#ffffff;fill-opacity:1;stroke:none;stroke-width:0.999999;stroke-opacity:1"
         x="480.70874"
         y="758.69916">Agenda</tspan></text></g></svg>
