<?xml version="1.0" encoding="UTF-8" standalone="no"?>
<svg
   width="1641.0404"
   height="314.92389"
   viewBox="0 0 1641.0403 314.92386"
   id="svg2"
   version="1.1"
   inkscape:version="1.2.2 (b0a8486541, 2022-12-01)"
   sodipodi:docname="reserve.svg"
   xml:space="preserve"
   xmlns:inkscape="http://www.inkscape.org/namespaces/inkscape"
   xmlns:sodipodi="http://sodipodi.sourceforge.net/DTD/sodipodi-0.dtd"
   xmlns="http://www.w3.org/2000/svg"
   xmlns:svg="http://www.w3.org/2000/svg"
   xmlns:rdf="http://www.w3.org/1999/02/22-rdf-syntax-ns#"
   xmlns:cc="http://creativecommons.org/ns#"
   xmlns:dc="http://purl.org/dc/elements/1.1/"><defs
     id="defs4" /><sodipodi:namedview
     id="base"
     pagecolor="#ffffff"
     bordercolor="#3bff48"
     borderopacity="1"
     inkscape:pageopacity="0"
     inkscape:pageshadow="2"
     inkscape:zoom="0.70747801"
     inkscape:cx="820.5202"
     inkscape:cy="156.89534"
     inkscape:document-units="in"
     inkscape:current-layer="layer1"
     showgrid="true"
     units="pc"
     inkscape:showpageshadow="false"
     showguides="false"
     inkscape:window-width="1920"
     inkscape:window-height="1031"
     inkscape:window-x="1920"
     inkscape:window-y="24"
     inkscape:window-maximized="1"
     objecttolerance="10000"
     inkscape:snap-bbox="true"
     guidetolerance="10000"
     inkscape:object-nodes="true"
     inkscape:snap-nodes="false"
     inkscape:bbox-paths="true"
     inkscape:bbox-nodes="true"
     inkscape:snap-bbox-midpoints="false"
     inkscape:snap-others="false"
     fit-margin-top="0"
     fit-margin-left="0"
     fit-margin-right="0"
     fit-margin-bottom="0"
     inkscape:snap-grids="false"
     inkscape:snap-global="true"
     inkscape:snap-page="true"
     borderlayer="true"
     showborder="false"
     inkscape:document-rotation="0"
     inkscape:pagecheckerboard="0"
     inkscape:deskcolor="#d1d1d1" /><metadata
     id="metadata7"><rdf:RDF><cc:Work
         rdf:about=""><dc:format>image/svg+xml</dc:format><dc:type
           rdf:resource="http://purl.org/dc/dcmitype/StillImage" /></cc:Work></rdf:RDF></metadata><g
     inkscape:label="Layer 1"
     inkscape:groupmode="layer"
     id="layer1"
     transform="translate(673.98114,-659.55948)"><rect
       style="fill:#008000;stroke:none;stroke-width:13.344;stroke-linecap:round"
       id="rect4378"
       width="1466.2887"
       height="297.95309"
       x="-669.07404"
       y="667.79462" /><g
       id="g4546"
       transform="matrix(3.5809598,0,0,2.2244766,174.39972,-2078.9882)"
       style="fill:#b3b3b3" /><path
       id="path2873"
       style="color:#000000;fill:#008000;stroke-width:2.2;stroke-linecap:round;stroke-linejoin:round;-inkscape-stroke:none"
       d="M -667.30731 659.55948 C -670.99347 659.55884 -673.98183 662.54715 -673.98114 666.23331 L -673.98114 967.81336 C -673.98014 971.49796 -670.99192 974.48392 -667.30731 974.48328 L 751.50508 974.48328 L 798.04609 974.48328 L 805.26093 974.48328 L 846.50507 974.48328 L 952.99725 974.48328 C 960.68864 974.48328 966.88201 968.29208 966.88201 960.60047 L 966.88201 673.44229 C 966.88201 665.7509 960.68864 659.55948 952.99725 659.55948 L 868.57147 659.55948 L 805.26093 659.55948 L 798.04609 659.55948 L 773.57148 659.55948 L -667.30731 659.55948 z M -660.63934 672.90128 L 791.37812 672.90128 L 791.37812 673.40323 C 791.37812 673.42523 791.37617 673.42909 791.37617 673.44229 L 791.37617 960.60047 C 791.37617 960.62247 791.37812 960.62829 791.37812 960.64149 L 791.37812 961.14149 L -660.63934 961.14149 L -660.63934 672.90128 z M 809.02851 705.02237 L 949.22772 705.02237 A 4.5678915 4.5678915 0 0 1 953.79608 709.58877 L 953.79608 924.45399 A 4.5678915 4.5678915 0 0 1 949.22772 929.02235 L 809.02851 929.02235 A 4.5678915 4.5678915 0 0 1 804.4621 924.45399 L 804.4621 709.58877 A 4.5678915 4.5678915 0 0 1 809.02851 705.02237 z " /><path
       id="path283"
       style="color:#000000;fill:#ffffff;fill-opacity:0.510549;fill-rule:evenodd;stroke-width:2.2;stroke-linecap:round;-inkscape-stroke:none"
       d="m -561.53581,704.48726 -67.51756,116.9454 h 27.51366 l 0.009,0.56628 -0.004,-0.56628 c 0,15.9412 3.44469,38.5055 23.50781,63.5976 20.06308,25.0921 57.89428,45.02608 108.68944,44.52932 h 0.58984 l 0.5918,-0.0242 c 11.80644,-0.46486 62.80785,2.1956 108.80664,-0.022 a 39.999962,39.999962 0 0 0 38.03124,-41.87304 39.999962,39.999962 0 0 0 -41.87304,-38.03118 c -39.2317,1.8865 -81.81899,-0.92884 -107.11718,-0.0506 0.066,-6.6e-4 0.1232,0 0.18942,0.002 l -1.18165,0.0264 c 0.31687,-0.022 0.66964,-0.022 0.99218,-0.0286 -32.11221,0.27918 -40.17165,-8.16288 -45.23242,-14.49228 -3.54035,-4.42772 -4.99565,-11.29656 -5.58984,-13.63472 h 27.11524 z" /><path
       id="path4788-2"
       style="fill:#ffffff;fill-opacity:0.509804;stroke:none;stroke-width:22.7273;stroke-dasharray:none;stroke-dashoffset:0;stroke-opacity:0.510549"
       inkscape:transform-center-x="19.490879"
       inkscape:transform-center-y="7.5572118e-05"
       d="m -187.35809,822.0674 -116.94335,67.51758 116.94335,67.51757 V 929.6338 c 199.489576,1.40666 741.75756,-1.52456 900.15424,-0.16797 l 47.86914,27.63672 V 822.0674 l -47.51562,27.43164 c -40.29779,-0.34377 -102.82649,-0.43305 -179.58398,-0.36914 -230.84885,0.19052 -572.761751,1.5834 -720.92378,0.55469 z" /><rect
       style="fill:#ff0000;fill-opacity:0.54902;stroke-width:13.344;stroke-linecap:round"
       id="rect472"
       width="13.5"
       height="13.5"
       x="-673.98108"
       y="659.55963" /><g
       aria-label="SHIP"
       transform="matrix(0,0.74666665,-0.74666665,0,615.01105,91.018409)"
       id="text2762"
       style="font-weight:bold;font-size:85.7698px;line-height:1.25;-inkscape-font-specification:'sans-serif, Bold';fill:#ffffff;stroke-width:1.33929" /><rect
       style="fill:#008000;fill-opacity:0.509804;stroke-width:13.5;stroke-linecap:round"
       id="rect3986"
       width="174.40239"
       height="262.40366"
       x="792.65674"
       y="685.81952" /><g
       aria-label="P O D S"
       id="text3786"
       style="font-weight:600;font-size:30.0524px;line-height:0.85;font-family:FreeSans;-inkscape-font-specification:'FreeSans, Semi-Bold';fill:#ffffff;stroke-width:0.5"
       transform="matrix(2.0000001,0,0,2.0000001,-1791.9916,-1405.8897)"><path
         d="m 1331.3568,1075.9336 v 7.8136 h -4.5079 v -21.9082 h 9.6769 q 3.4259,0 5.2291,1.743 1.8332,1.7431 1.8332,5.0488 0,3.3359 -1.8032,5.3193 -1.8031,1.9835 -4.8083,1.9835 z m 0,-3.7566 h 4.2073 q 3.5161,0 3.5161,-3.2757 0,-1.6829 -0.8715,-2.4943 -0.8415,-0.8115 -2.6446,-0.8115 h -4.2073 z"
         id="path4057" /><path
         d="m 1328.5318,1106.7673 q -2.885,-3.2156 -2.885,-8.2644 0,-5.0488 2.885,-8.2644 2.9151,-3.2156 7.6333,-3.2156 4.7483,0 7.6634,3.2156 2.9151,3.1856 2.9151,8.4147 0,4.8685 -2.885,8.1141 -2.855,3.2156 -7.6634,3.2156 -4.7783,0 -7.6634,-3.2156 z m 7.6634,-15.8977 q -2.7348,0 -4.3877,2.1037 -1.6528,2.0736 -1.6528,5.5296 0,3.456 1.6528,5.5597 1.6529,2.0736 4.3877,2.0736 2.7047,0 4.3576,-2.0736 1.6829,-2.0736 1.6829,-5.4395 0,-3.5462 -1.6529,-5.6498 -1.6228,-2.1037 -4.3876,-2.1037 z"
         id="path4059" /><path
         d="m 1326.8489,1134.8363 v -21.9082 h 8.5649 q 2.5244,0 4.1473,0.601 1.6528,0.6011 2.7648,1.9234 2.6746,3.1855 2.6746,8.4146 0,5.2893 -2.6746,8.4147 -2.1337,2.5545 -6.9121,2.5545 z m 4.5079,-3.7566 h 4.057 q 5.0789,0 5.0789,-7.1825 0,-7.2126 -5.0789,-7.2126 h -4.057 z"
         id="path4061" /><path
         d="m 1342.9269,1145.1442 h -4.2073 q -0.2404,-3.4259 -4.598,-3.4259 -1.7431,0 -2.7648,0.7513 -1.0218,0.7212 -1.0218,1.9534 0,1.2021 0.8715,1.8031 0.8715,0.571 3.2757,1.0519 l 3.426,0.6611 q 3.0353,0.6011 4.4177,2.0436 1.3824,1.4124 1.3824,3.997 0,3.3358 -2.3741,5.2291 -2.3742,1.8632 -6.6116,1.8632 -4.2073,0 -6.5514,-1.8632 -2.314,-1.8633 -2.5244,-5.3794 h 4.3876 q 0.1203,1.7731 1.3825,2.7047 1.2622,0.9316 3.5461,0.9316 2.0436,0 3.2156,-0.7813 1.2021,-0.7814 1.2021,-2.1638 0,-1.3223 -0.9316,-2.0436 -0.9316,-0.7212 -3.1855,-1.142 l -3.0654,-0.601 q -3.3358,-0.6311 -4.7483,-1.9835 -1.4124,-1.3523 -1.4124,-3.9068 0,-3.2156 2.1638,-4.9586 2.1938,-1.7731 6.1306,-1.7731 1.142,0 2.1939,0.1502 1.0819,0.1503 2.2839,0.6311 1.2021,0.4508 2.0737,1.2021 0.8715,0.7213 1.4425,2.0436 0.601,1.2923 0.601,3.0052 z"
         id="path4063" /></g><text
       xml:space="preserve"
       style="font-style:normal;font-variant:normal;font-weight:600;font-stretch:normal;font-size:79.3737px;line-height:1.25;font-family:FreeSans;-inkscape-font-specification:'FreeSans, Semi-Bold';font-variant-ligatures:normal;font-variant-caps:normal;font-variant-numeric:normal;font-variant-east-asian:normal;fill:#ffffff;fill-opacity:1;stroke:none;stroke-width:0.999999;stroke-opacity:1"
       x="517.06183"
       y="758.69916"
       id="text15701"
       transform="scale(0.9948168,1.0052102)"><tspan
         sodipodi:role="line"
         id="tspan15699"
         style="font-style:normal;font-variant:normal;font-weight:600;font-stretch:normal;font-size:79.3737px;font-family:FreeSans;-inkscape-font-specification:'FreeSans, Semi-Bold';font-variant-ligatures:normal;font-variant-caps:normal;font-variant-numeric:normal;font-variant-east-asian:normal;fill:#ffffff;fill-opacity:1;stroke:none;stroke-width:0.999999;stroke-opacity:1"
         x="517.06183"
         y="758.69916">Repair</tspan></text></g></svg>
