<?xml version="1.0" encoding="UTF-8" standalone="no"?>
<svg
   xmlns:dc="http://purl.org/dc/elements/1.1/"
   xmlns:cc="http://web.resource.org/cc/"
   xmlns:rdf="http://www.w3.org/1999/02/22-rdf-syntax-ns#"
   xmlns:svg="http://www.w3.org/2000/svg"
   xmlns="http://www.w3.org/2000/svg"
   xmlns:sodipodi="http://inkscape.sourceforge.net/DTD/sodipodi-0.dtd"
   xmlns:inkscape="http://www.inkscape.org/namespaces/inkscape"
   version="1.1"
   width="1330"
   height="700"
   id="Flag of the United States"
   viewBox="0 0 18525 9750"
   sodipodi:version="0.32"
   inkscape:version="0.43"
   sodipodi:docname="US_46_Star_Flag.svg"
   sodipodi:docbase="d:\Dateien\Wikipediazeugs\USA">
  <metadata
     id="metadata36">
    <rdf:RDF>
      <cc:Work
         rdf:about="">
        <dc:format>image/svg+xml</dc:format>
        <dc:type
           rdf:resource="http://purl.org/dc/dcmitype/StillImage" />
      </cc:Work>
    </rdf:RDF>
  </metadata>
  <defs
     id="defs34" />
  <sodipodi:namedview
     inkscape:window-height="840"
     inkscape:window-width="1050"
     inkscape:pageshadow="2"
     inkscape:pageopacity="0.0"
     borderopacity="1.0"
     bordercolor="#666666"
     pagecolor="#ffffff"
     id="base"
     inkscape:zoom="0.5"
     inkscape:cx="665"
     inkscape:cy="425.06702"
     inkscape:window-x="22"
     inkscape:window-y="29"
     inkscape:current-layer="Flag of the United States" />
  <rect
     width="100%"
     height="100%"
     fill="#bf0a30"
     id="red background" />
  <g
     fill="white"
     id="g4">
    <rect
       width="100%"
       height="750"
       y="750"
       id="rect6" />
    <rect
       width="100%"
       height="750"
       y="2250"
       id="rect8" />
    <rect
       width="100%"
       height="750"
       y="3750"
       id="rect10" />
    <rect
       width="100%"
       height="750"
       y="5250"
       id="rect12" />
    <rect
       width="100%"
       height="750"
       y="6750"
       id="rect14" />
    <rect
       width="100%"
       height="750"
       y="8250"
       id="rect16" />
  </g>
  <rect
     id="blue field"
     fill="#002868"
     width="7410"
     height="5250" />
  <g
     id="star row 9"
     transform="matrix(0.975382,0,0,1.025578,-139.173,4303.484)">
    <polygon
       style="fill:#ffffff"
       id="polygon1529"
       transform="matrix(300.3,0,0,300.3,617.5,525)"
       points="0,-1 0.58778525,0.80901699 -0.95105652,-0.30901699 0.95105652,-0.30901699 -0.58778525,0.80901699 0,-1 " />
  </g>
  <g
     id="g1352"
     transform="matrix(0.975382,0,0,1.025578,787.077,4303.484)">
    <polygon
       style="fill:#ffffff"
       id="polygon1354"
       transform="matrix(300.3,0,0,300.3,617.5,525)"
       points="0,-1 0.58778525,0.80901699 -0.95105652,-0.30901699 0.95105652,-0.30901699 -0.58778525,0.80901699 0,-1 " />
  </g>
  <g
     id="g1374"
     transform="matrix(0.975382,0,0,1.025578,1713.326,4303.484)">
    <polygon
       style="fill:#ffffff"
       id="polygon1376"
       transform="matrix(300.3,0,0,300.3,617.5,525)"
       points="0,-1 0.58778525,0.80901699 -0.95105652,-0.30901699 0.95105652,-0.30901699 -0.58778525,0.80901699 0,-1 " />
  </g>
  <g
     id="g1396"
     transform="matrix(0.975382,0,0,1.025578,2639.576,4303.484)">
    <polygon
       style="fill:#ffffff"
       id="polygon1398"
       transform="matrix(300.3,0,0,300.3,617.5,525)"
       points="0,-1 0.58778525,0.80901699 -0.95105652,-0.30901699 0.95105652,-0.30901699 -0.58778525,0.80901699 0,-1 " />
  </g>
  <g
     id="g1418"
     transform="matrix(0.975382,0,0,1.025578,3565.826,4303.484)">
    <polygon
       style="fill:#ffffff"
       id="polygon1420"
       transform="matrix(300.3,0,0,300.3,617.5,525)"
       points="0,-1 0.58778525,0.80901699 -0.95105652,-0.30901699 0.95105652,-0.30901699 -0.58778525,0.80901699 0,-1 " />
  </g>
  <g
     id="g1440"
     transform="matrix(0.975382,0,0,1.025578,4492.076,4303.484)">
    <polygon
       style="fill:#ffffff"
       id="polygon1442"
       transform="matrix(300.3,0,0,300.3,617.5,525)"
       points="0,-1 0.58778525,0.80901699 -0.95105652,-0.30901699 0.95105652,-0.30901699 -0.58778525,0.80901699 0,-1 " />
  </g>
  <g
     id="g1462"
     transform="matrix(0.975382,0,0,1.025578,5418.326,4303.484)">
    <polygon
       style="fill:#ffffff"
       id="polygon1464"
       transform="matrix(300.3,0,0,300.3,617.5,525)"
       points="0,-1 0.58778525,0.80901699 -0.95105652,-0.30901699 0.95105652,-0.30901699 -0.58778525,0.80901699 0,-1 " />
  </g>
  <g
     id="g1484"
     transform="matrix(0.975382,0,0,1.025578,6344.576,4303.484)">
    <polygon
       style="fill:#ffffff"
       id="polygon1486"
       transform="matrix(300.3,0,0,300.3,617.5,525)"
       points="0,-1 0.58778525,0.80901699 -0.95105652,-0.30901699 0.95105652,-0.30901699 -0.58778525,0.80901699 0,-1 " />
  </g>
  <g
     id="g2107"
     transform="translate(-463.1249,-1.776357e-13)">
    <g
       transform="matrix(0.975382,0,0,1.025578,787.077,3436.988)"
       id="g1356">
      <polygon
         points="0,-1 0.58778525,0.80901699 -0.95105652,-0.30901699 0.95105652,-0.30901699 -0.58778525,0.80901699 0,-1 "
         transform="matrix(300.3,0,0,300.3,617.5,525)"
         id="polygon1358"
         style="fill:#ffffff" />
    </g>
    <g
       transform="matrix(0.975382,0,0,1.025578,1713.326,3436.988)"
       id="g1378">
      <polygon
         points="0,-1 0.58778525,0.80901699 -0.95105652,-0.30901699 0.95105652,-0.30901699 -0.58778525,0.80901699 0,-1 "
         transform="matrix(300.3,0,0,300.3,617.5,525)"
         id="polygon1380"
         style="fill:#ffffff" />
    </g>
    <g
       transform="matrix(0.975382,0,0,1.025578,2639.576,3436.988)"
       id="g1400">
      <polygon
         points="0,-1 0.58778525,0.80901699 -0.95105652,-0.30901699 0.95105652,-0.30901699 -0.58778525,0.80901699 0,-1 "
         transform="matrix(300.3,0,0,300.3,617.5,525)"
         id="polygon1402"
         style="fill:#ffffff" />
    </g>
    <g
       transform="matrix(0.975382,0,0,1.025578,3565.826,3436.988)"
       id="g1422">
      <polygon
         points="0,-1 0.58778525,0.80901699 -0.95105652,-0.30901699 0.95105652,-0.30901699 -0.58778525,0.80901699 0,-1 "
         transform="matrix(300.3,0,0,300.3,617.5,525)"
         id="polygon1424"
         style="fill:#ffffff" />
    </g>
    <g
       transform="matrix(0.975382,0,0,1.025578,4492.076,3436.988)"
       id="g1444">
      <polygon
         points="0,-1 0.58778525,0.80901699 -0.95105652,-0.30901699 0.95105652,-0.30901699 -0.58778525,0.80901699 0,-1 "
         transform="matrix(300.3,0,0,300.3,617.5,525)"
         id="polygon1446"
         style="fill:#ffffff" />
    </g>
    <g
       transform="matrix(0.975382,0,0,1.025578,5418.326,3436.988)"
       id="g1466">
      <polygon
         points="0,-1 0.58778525,0.80901699 -0.95105652,-0.30901699 0.95105652,-0.30901699 -0.58778525,0.80901699 0,-1 "
         transform="matrix(300.3,0,0,300.3,617.5,525)"
         id="polygon1468"
         style="fill:#ffffff" />
    </g>
    <g
       transform="matrix(0.975382,0,0,1.025578,6344.576,3436.988)"
       id="g1488">
      <polygon
         points="0,-1 0.58778525,0.80901699 -0.95105652,-0.30901699 0.95105652,-0.30901699 -0.58778525,0.80901699 0,-1 "
         transform="matrix(300.3,0,0,300.3,617.5,525)"
         id="polygon1490"
         style="fill:#ffffff" />
    </g>
  </g>
  <g
     id="g1322"
     transform="matrix(0.975382,0,0,1.025578,-139.173,2553.485)">
    <polygon
       style="fill:#ffffff"
       id="polygon1324"
       transform="matrix(300.3,0,0,300.3,617.5,525)"
       points="0,-1 0.58778525,0.80901699 -0.95105652,-0.30901699 0.95105652,-0.30901699 -0.58778525,0.80901699 0,-1 " />
  </g>
  <g
     id="g1360"
     transform="matrix(0.975382,0,0,1.025578,787.077,2553.485)">
    <polygon
       style="fill:#ffffff"
       id="polygon1362"
       transform="matrix(300.3,0,0,300.3,617.5,525)"
       points="0,-1 0.58778525,0.80901699 -0.95105652,-0.30901699 0.95105652,-0.30901699 -0.58778525,0.80901699 0,-1 " />
  </g>
  <g
     id="g1382"
     transform="matrix(0.975382,0,0,1.025578,1713.326,2553.485)">
    <polygon
       style="fill:#ffffff"
       id="polygon1384"
       transform="matrix(300.3,0,0,300.3,617.5,525)"
       points="0,-1 0.58778525,0.80901699 -0.95105652,-0.30901699 0.95105652,-0.30901699 -0.58778525,0.80901699 0,-1 " />
  </g>
  <g
     id="g1404"
     transform="matrix(0.975382,0,0,1.025578,2639.576,2553.485)">
    <polygon
       style="fill:#ffffff"
       id="polygon1406"
       transform="matrix(300.3,0,0,300.3,617.5,525)"
       points="0,-1 0.58778525,0.80901699 -0.95105652,-0.30901699 0.95105652,-0.30901699 -0.58778525,0.80901699 0,-1 " />
  </g>
  <g
     id="g1426"
     transform="matrix(0.975382,0,0,1.025578,3565.826,2553.485)">
    <polygon
       style="fill:#ffffff"
       id="polygon1428"
       transform="matrix(300.3,0,0,300.3,617.5,525)"
       points="0,-1 0.58778525,0.80901699 -0.95105652,-0.30901699 0.95105652,-0.30901699 -0.58778525,0.80901699 0,-1 " />
  </g>
  <g
     id="g1448"
     transform="matrix(0.975382,0,0,1.025578,4492.076,2553.485)">
    <polygon
       style="fill:#ffffff"
       id="polygon1450"
       transform="matrix(300.3,0,0,300.3,617.5,525)"
       points="0,-1 0.58778525,0.80901699 -0.95105652,-0.30901699 0.95105652,-0.30901699 -0.58778525,0.80901699 0,-1 " />
  </g>
  <g
     id="g1470"
     transform="matrix(0.975382,0,0,1.025578,5418.326,2553.485)">
    <polygon
       style="fill:#ffffff"
       id="polygon1472"
       transform="matrix(300.3,0,0,300.3,617.5,525)"
       points="0,-1 0.58778525,0.80901699 -0.95105652,-0.30901699 0.95105652,-0.30901699 -0.58778525,0.80901699 0,-1 " />
  </g>
  <g
     id="g1492"
     transform="matrix(0.975382,0,0,1.025578,6344.576,2553.485)">
    <polygon
       style="fill:#ffffff"
       id="polygon1494"
       transform="matrix(300.3,0,0,300.3,617.5,525)"
       points="0,-1 0.58778525,0.80901699 -0.95105652,-0.30901699 0.95105652,-0.30901699 -0.58778525,0.80901699 0,-1 " />
  </g>
  <g
     id="g1326"
     transform="matrix(0.975382,0,0,1.025578,-139.173,1678.478)">
    <polygon
       style="fill:#ffffff"
       id="polygon1328"
       transform="matrix(300.3,0,0,300.3,617.5,525)"
       points="0,-1 0.58778525,0.80901699 -0.95105652,-0.30901699 0.95105652,-0.30901699 -0.58778525,0.80901699 0,-1 " />
  </g>
  <g
     id="g1364"
     transform="matrix(0.975382,0,0,1.025578,787.077,1678.478)">
    <polygon
       style="fill:#ffffff"
       id="polygon1366"
       transform="matrix(300.3,0,0,300.3,617.5,525)"
       points="0,-1 0.58778525,0.80901699 -0.95105652,-0.30901699 0.95105652,-0.30901699 -0.58778525,0.80901699 0,-1 " />
  </g>
  <g
     id="g1386"
     transform="matrix(0.975382,0,0,1.025578,1713.326,1678.478)">
    <polygon
       style="fill:#ffffff"
       id="polygon1388"
       transform="matrix(300.3,0,0,300.3,617.5,525)"
       points="0,-1 0.58778525,0.80901699 -0.95105652,-0.30901699 0.95105652,-0.30901699 -0.58778525,0.80901699 0,-1 " />
  </g>
  <g
     id="g1408"
     transform="matrix(0.975382,0,0,1.025578,2639.576,1678.478)">
    <polygon
       style="fill:#ffffff"
       id="polygon1410"
       transform="matrix(300.3,0,0,300.3,617.5,525)"
       points="0,-1 0.58778525,0.80901699 -0.95105652,-0.30901699 0.95105652,-0.30901699 -0.58778525,0.80901699 0,-1 " />
  </g>
  <g
     id="g1430"
     transform="matrix(0.975382,0,0,1.025578,3565.826,1678.478)">
    <polygon
       style="fill:#ffffff"
       id="polygon1432"
       transform="matrix(300.3,0,0,300.3,617.5,525)"
       points="0,-1 0.58778525,0.80901699 -0.95105652,-0.30901699 0.95105652,-0.30901699 -0.58778525,0.80901699 0,-1 " />
  </g>
  <g
     id="g1452"
     transform="matrix(0.975382,0,0,1.025578,4492.076,1678.478)">
    <polygon
       style="fill:#ffffff"
       id="polygon1454"
       transform="matrix(300.3,0,0,300.3,617.5,525)"
       points="0,-1 0.58778525,0.80901699 -0.95105652,-0.30901699 0.95105652,-0.30901699 -0.58778525,0.80901699 0,-1 " />
  </g>
  <g
     id="g1474"
     transform="matrix(0.975382,0,0,1.025578,5418.326,1678.478)">
    <polygon
       style="fill:#ffffff"
       id="polygon1476"
       transform="matrix(300.3,0,0,300.3,617.5,525)"
       points="0,-1 0.58778525,0.80901699 -0.95105652,-0.30901699 0.95105652,-0.30901699 -0.58778525,0.80901699 0,-1 " />
  </g>
  <g
     id="g1496"
     transform="matrix(0.975382,0,0,1.025578,6344.576,1678.478)">
    <polygon
       style="fill:#ffffff"
       id="polygon1498"
       transform="matrix(300.3,0,0,300.3,617.5,525)"
       points="0,-1 0.58778525,0.80901699 -0.95105652,-0.30901699 0.95105652,-0.30901699 -0.58778525,0.80901699 0,-1 " />
  </g>
  <g
     id="g2091"
     transform="translate(-463.1249,-1.776357e-13)">
    <g
       transform="matrix(0.975382,0,0,1.025578,787.077,803.4849)"
       id="g1368">
      <polygon
         points="0,-1 0.58778525,0.80901699 -0.95105652,-0.30901699 0.95105652,-0.30901699 -0.58778525,0.80901699 0,-1 "
         transform="matrix(300.3,0,0,300.3,617.5,525)"
         id="polygon1370"
         style="fill:#ffffff" />
    </g>
    <g
       transform="matrix(0.975382,0,0,1.025578,1713.326,803.4849)"
       id="g1390">
      <polygon
         points="0,-1 0.58778525,0.80901699 -0.95105652,-0.30901699 0.95105652,-0.30901699 -0.58778525,0.80901699 0,-1 "
         transform="matrix(300.3,0,0,300.3,617.5,525)"
         id="polygon1392"
         style="fill:#ffffff" />
    </g>
    <g
       transform="matrix(0.975382,0,0,1.025578,2639.576,803.4849)"
       id="g1412">
      <polygon
         points="0,-1 0.58778525,0.80901699 -0.95105652,-0.30901699 0.95105652,-0.30901699 -0.58778525,0.80901699 0,-1 "
         transform="matrix(300.3,0,0,300.3,617.5,525)"
         id="polygon1414"
         style="fill:#ffffff" />
    </g>
    <g
       transform="matrix(0.975382,0,0,1.025578,3565.826,803.4849)"
       id="g1434">
      <polygon
         points="0,-1 0.58778525,0.80901699 -0.95105652,-0.30901699 0.95105652,-0.30901699 -0.58778525,0.80901699 0,-1 "
         transform="matrix(300.3,0,0,300.3,617.5,525)"
         id="polygon1436"
         style="fill:#ffffff" />
    </g>
    <g
       transform="matrix(0.975382,0,0,1.025578,4492.076,803.4849)"
       id="g1456">
      <polygon
         points="0,-1 0.58778525,0.80901699 -0.95105652,-0.30901699 0.95105652,-0.30901699 -0.58778525,0.80901699 0,-1 "
         transform="matrix(300.3,0,0,300.3,617.5,525)"
         id="polygon1458"
         style="fill:#ffffff" />
    </g>
    <g
       transform="matrix(0.975382,0,0,1.025578,5418.326,803.4849)"
       id="g1478">
      <polygon
         points="0,-1 0.58778525,0.80901699 -0.95105652,-0.30901699 0.95105652,-0.30901699 -0.58778525,0.80901699 0,-1 "
         transform="matrix(300.3,0,0,300.3,617.5,525)"
         id="polygon1480"
         style="fill:#ffffff" />
    </g>
    <g
       transform="matrix(0.975382,0,0,1.025578,6344.576,803.4849)"
       id="g1500">
      <polygon
         points="0,-1 0.58778525,0.80901699 -0.95105652,-0.30901699 0.95105652,-0.30901699 -0.58778525,0.80901699 0,-1 "
         transform="matrix(300.3,0,0,300.3,617.5,525)"
         id="polygon1502"
         style="fill:#ffffff" />
    </g>
  </g>
  <g
     id="g1661"
     transform="matrix(0.975382,0,0,1.025578,-139.173,-71.5219)">
    <polygon
       style="fill:#ffffff"
       id="polygon1663"
       transform="matrix(300.3,0,0,300.3,617.5,525)"
       points="0,-1 0.58778525,0.80901699 -0.95105652,-0.30901699 0.95105652,-0.30901699 -0.58778525,0.80901699 0,-1 " />
  </g>
  <g
     id="g1665"
     transform="matrix(0.975382,0,0,1.025578,787.077,-71.5219)">
    <polygon
       style="fill:#ffffff"
       id="polygon1667"
       transform="matrix(300.3,0,0,300.3,617.5,525)"
       points="0,-1 0.58778525,0.80901699 -0.95105652,-0.30901699 0.95105652,-0.30901699 -0.58778525,0.80901699 0,-1 " />
  </g>
  <g
     id="g1669"
     transform="matrix(0.975382,0,0,1.025578,1713.326,-71.5219)">
    <polygon
       style="fill:#ffffff"
       id="polygon1671"
       transform="matrix(300.3,0,0,300.3,617.5,525)"
       points="0,-1 0.58778525,0.80901699 -0.95105652,-0.30901699 0.95105652,-0.30901699 -0.58778525,0.80901699 0,-1 " />
  </g>
  <g
     id="g1673"
     transform="matrix(0.975382,0,0,1.025578,2639.576,-71.5219)">
    <polygon
       style="fill:#ffffff"
       id="polygon1675"
       transform="matrix(300.3,0,0,300.3,617.5,525)"
       points="0,-1 0.58778525,0.80901699 -0.95105652,-0.30901699 0.95105652,-0.30901699 -0.58778525,0.80901699 0,-1 " />
  </g>
  <g
     id="g1677"
     transform="matrix(0.975382,0,0,1.025578,3565.826,-71.5219)">
    <polygon
       style="fill:#ffffff"
       id="polygon1679"
       transform="matrix(300.3,0,0,300.3,617.5,525)"
       points="0,-1 0.58778525,0.80901699 -0.95105652,-0.30901699 0.95105652,-0.30901699 -0.58778525,0.80901699 0,-1 " />
  </g>
  <g
     id="g1681"
     transform="matrix(0.975382,0,0,1.025578,4492.076,-71.5219)">
    <polygon
       style="fill:#ffffff"
       id="polygon1683"
       transform="matrix(300.3,0,0,300.3,617.5,525)"
       points="0,-1 0.58778525,0.80901699 -0.95105652,-0.30901699 0.95105652,-0.30901699 -0.58778525,0.80901699 0,-1 " />
  </g>
  <g
     id="g1685"
     transform="matrix(0.975382,0,0,1.025578,5418.326,-71.5219)">
    <polygon
       style="fill:#ffffff"
       id="polygon1687"
       transform="matrix(300.3,0,0,300.3,617.5,525)"
       points="0,-1 0.58778525,0.80901699 -0.95105652,-0.30901699 0.95105652,-0.30901699 -0.58778525,0.80901699 0,-1 " />
  </g>
  <g
     id="g1689"
     transform="matrix(0.975382,0,0,1.025578,6344.576,-71.5219)">
    <polygon
       style="fill:#ffffff"
       id="polygon1691"
       transform="matrix(300.3,0,0,300.3,617.5,525)"
       points="0,-1 0.58778525,0.80901699 -0.95105652,-0.30901699 0.95105652,-0.30901699 -0.58778525,0.80901699 0,-1 " />
  </g>
</svg>
