<?xml version="1.0" encoding="UTF-8" standalone="no"?>
<svg
   width="1.343375in"
   height="1.0416667in"
   viewBox="0 0 120.90374 93.750006"
   id="svg2"
   version="1.1"
   inkscape:version="1.2.2 (b0a8486541, 2022-12-01)"
   sodipodi:docname="10.svg"
   xmlns:inkscape="http://www.inkscape.org/namespaces/inkscape"
   xmlns:sodipodi="http://sodipodi.sourceforge.net/DTD/sodipodi-0.dtd"
   xmlns="http://www.w3.org/2000/svg"
   xmlns:svg="http://www.w3.org/2000/svg"
   xmlns:rdf="http://www.w3.org/1999/02/22-rdf-syntax-ns#"
   xmlns:cc="http://creativecommons.org/ns#"
   xmlns:dc="http://purl.org/dc/elements/1.1/">
  <defs
     id="defs4" />
  <sodipodi:namedview
     id="base"
     pagecolor="#ffffff"
     bordercolor="#666666"
     borderopacity="1.0"
     inkscape:pageopacity="0.0"
     inkscape:pageshadow="2"
     inkscape:zoom="1.6245779"
     inkscape:cx="-48.320244"
     inkscape:cy="149.57731"
     inkscape:document-units="in"
     inkscape:current-layer="g20"
     showgrid="true"
     units="in"
     inkscape:showpageshadow="false"
     showguides="false"
     inkscape:window-width="1920"
     inkscape:window-height="1031"
     inkscape:window-x="0"
     inkscape:window-y="24"
     inkscape:window-maximized="1"
     objecttolerance="10000"
     inkscape:snap-bbox="true"
     guidetolerance="10000"
     inkscape:object-nodes="true"
     fit-margin-top="0"
     fit-margin-left="0"
     fit-margin-right="0"
     fit-margin-bottom="0"
     inkscape:bbox-nodes="false"
     inkscape:document-rotation="0"
     inkscape:snap-bbox-midpoints="true"
     inkscape:snap-global="true"
     inkscape:pagecheckerboard="0"
     inkscape:deskcolor="#d1d1d1" />
  <metadata
     id="metadata7">
    <rdf:RDF>
      <cc:Work
         rdf:about="">
        <dc:format>image/svg+xml</dc:format>
        <dc:type
           rdf:resource="http://purl.org/dc/dcmitype/StillImage" />
      </cc:Work>
    </rdf:RDF>
  </metadata>
  <g
     inkscape:label="Layer 1"
     inkscape:groupmode="layer"
     id="layer1"
     transform="translate(198.45723,-834.40232)">
    <g
       id="g20"
       transform="matrix(0.7,0,0,0.7,15,300.70865)">
      <rect
         style="fill:#008000;fill-opacity:1;stroke:#000000;stroke-width:10.0446;stroke-linecap:round;stroke-dasharray:none;stroke-opacity:1"
         id="rect1004"
         width="162.67503"
         height="123.88397"
         x="-299.9166"
         y="767.44183" />
      <g
         aria-label="10 "
         id="text495"
         style="font-weight:600;font-size:101.347px;line-height:1.25;font-family:FreeSans;-inkscape-font-specification:'FreeSans, Semi-Bold';fill:#ffffff;stroke-width:1.33929">
        <path
           d="m -252.27694,815.34726 h -17.22899 v -9.42527 q 18.64785,0 21.9923,-12.87107 h 9.42527 v 71.85502 h -14.18858 z"
           id="path725" />
        <path
           d="m -180.21924,864.39921 q -4.96601,2.83772 -12.16164,2.83772 -7.19564,0 -12.16164,-2.83772 -4.96601,-2.93906 -7.70238,-8.31045 -2.63502,-5.3714 -3.74983,-11.75626 -1.11482,-6.4862 -1.11482,-14.89801 0,-18.3438 5.57408,-28.07311 5.57409,-9.83066 19.15459,-9.83066 7.09429,0 11.95894,2.73637 4.96601,2.63502 7.70237,7.90506 2.73637,5.27005 3.85119,11.95895 1.21616,6.6889 1.21616,15.70878 0,8.10776 -1.11481,14.49262 -1.11482,6.28352 -3.74984,11.75626 -2.63502,5.37139 -7.70237,8.31045 z m -1.62156,-34.86337 q 0,-14.69531 -2.73636,-20.57344 -2.63503,-5.97947 -7.80372,-5.97947 -5.67544,0 -8.10776,5.77678 -2.43233,5.67543 -2.43233,20.57344 0,10.33739 1.31751,16.21552 1.31751,5.77678 3.4458,7.70237 2.22963,1.82425 5.77678,1.82425 3.44579,0 5.57408,-1.82425 2.22964,-1.82425 3.54715,-7.60103 1.41885,-5.87812 1.41885,-16.11417 z"
           id="path727" />
      </g>
    </g>
  </g>
</svg>
