<?xml version="1.0" encoding="UTF-8" standalone="no"?>
<svg
   xmlns:dc="http://purl.org/dc/elements/1.1/"
   xmlns:cc="http://creativecommons.org/ns#"
   xmlns:rdf="http://www.w3.org/1999/02/22-rdf-syntax-ns#"
   xmlns:svg="http://www.w3.org/2000/svg"
   xmlns="http://www.w3.org/2000/svg"
   xmlns:sodipodi="http://sodipodi.sourceforge.net/DTD/sodipodi-0.dtd"
   xmlns:inkscape="http://www.inkscape.org/namespaces/inkscape"
   width="2.5521176in"
   height="2.5323079in"
   viewBox="0 0 229.69056 227.90771"
   id="svg2"
   version="1.1"
   inkscape:version="1.0.1 (3bc2e813f5, 2020-09-07)"
   sodipodi:docname="1000.svg">
  <defs
     id="defs4" />
  <sodipodi:namedview
     id="base"
     pagecolor="#ffffff"
     bordercolor="#666666"
     borderopacity="1.0"
     inkscape:pageopacity="0.0"
     inkscape:pageshadow="2"
     inkscape:zoom="1.6245779"
     inkscape:cx="135.43994"
     inkscape:cy="92.69239"
     inkscape:document-units="in"
     inkscape:current-layer="g20"
     showgrid="true"
     units="in"
     inkscape:showpageshadow="false"
     showguides="false"
     inkscape:window-width="1920"
     inkscape:window-height="1017"
     inkscape:window-x="1912"
     inkscape:window-y="-8"
     inkscape:window-maximized="1"
     objecttolerance="10000"
     inkscape:snap-bbox="true"
     guidetolerance="10000"
     inkscape:object-nodes="true"
     fit-margin-top="0"
     fit-margin-left="0"
     fit-margin-right="0"
     fit-margin-bottom="0"
     inkscape:bbox-nodes="false"
     inkscape:document-rotation="0"
     inkscape:snap-bbox-midpoints="true"
     inkscape:snap-global="true" />
  <metadata
     id="metadata7">
    <rdf:RDF>
      <cc:Work
         rdf:about="">
        <dc:format>image/svg+xml</dc:format>
        <dc:type
           rdf:resource="http://purl.org/dc/dcmitype/StillImage" />
        <dc:title></dc:title>
      </cc:Work>
    </rdf:RDF>
  </metadata>
  <g
     inkscape:label="Layer 1"
     inkscape:groupmode="layer"
     id="layer1"
     transform="translate(27.598564,-887.33661)">
    <g
       id="g20"
       transform="matrix(0.7,0,0,0.7,15,300.70865)">
      <path
         style="opacity:1;fill:#c0b840;fill-opacity:1;stroke:#000000;stroke-width:19.1285;stroke-miterlimit:4;stroke-dasharray:none;stroke-opacity:1"
         d="m 70.560553,1150.9674 c -54.507807,-11.8857 -99.248611,-52.6936 -116.529384,-106.2856 -2.637626,-8.1798 -4.221376,-20.3038 -4.951713,-37.9061 -0.916626,-22.09226 -0.458991,-28.29066 3.126851,-42.35126 13.928799,-54.61702 56.1024763,-97.63652 110.350249,-112.56355 18.205103,-5.00937 61.937164,-5.11602 80.039934,-0.19519 41.90426,11.39075 77.65102,40.17365 97.87326,78.80642 45.03204,86.02978 -1.578,191.77968 -96.21517,218.29528 -21.33644,5.9784 -52.149555,6.8979 -73.694027,2.2 z"
         id="path824"
         inkscape:connector-curvature="0" />
      <g
         aria-label="1000"
         id="text837"
         style="font-style:normal;font-weight:normal;font-size:53.5714px;line-height:1.25;font-family:sans-serif;fill:#000000;fill-opacity:1;stroke:none;stroke-width:1.33929">
        <path
           d="m 25.499638,1037.1593 h -39.355469 v -7.4219 H 1.2808876 V 981.00696 H -13.855831 v -6.64063 q 3.076172,0 6.5917967,-0.48828 3.515625,-0.53711 5.3222657,-1.51367 2.2460937,-1.2207 3.515625,-3.07617 1.3183593,-1.9043 1.5136718,-5.07813 h 7.5683598 v 65.52732 h 14.84375 z"
           style="font-size:100px;stroke-width:1.33929"
           id="path843" />
        <path
           d="m 93.126591,1000.7823 q 0,19.5801 -6.152344,28.7598 -6.103516,9.1309 -18.994141,9.1309 -13.085937,0 -19.140625,-9.2774 -6.005859,-9.2773 -6.005859,-28.5156 0,-19.38476 6.103516,-28.61328 6.103515,-9.27734 19.042968,-9.27734 13.085938,0 19.091797,9.42383 6.054688,9.375 6.054688,28.36909 z m -12.841797,22.168 q 1.708984,-3.9551 2.294922,-9.2773 0.634765,-5.3711 0.634765,-12.8907 0,-7.42183 -0.634765,-12.89058 -0.585938,-5.46875 -2.34375,-9.27734 -1.708985,-3.75977 -4.6875,-5.66406 -2.929688,-1.9043 -7.56836,-1.9043 -4.589843,0 -7.617187,1.9043 -2.978516,1.90429 -4.736328,5.76172 -1.660157,3.61328 -2.294922,9.42382 -0.585938,5.81055 -0.585938,12.74414 0,7.6172 0.53711,12.7441 0.537109,5.127 2.294922,9.1797 1.611328,3.8086 4.541015,5.8106 2.978516,2.0019 7.861328,2.0019 4.589844,0 7.617188,-1.9043 3.027344,-1.9043 4.6875,-5.7617 z"
           style="font-size:100px;stroke-width:1.33929"
           id="path845" />
        <path
           d="m 156.70081,1000.7823 q 0,19.5801 -6.15234,28.7598 -6.10352,9.1309 -18.99414,9.1309 -13.08594,0 -19.14063,-9.2774 -6.00586,-9.2773 -6.00586,-28.5156 0,-19.38476 6.10352,-28.61328 6.10351,-9.27734 19.04297,-9.27734 13.08593,0 19.09179,9.42383 6.05469,9.375 6.05469,28.36909 z m -12.8418,22.168 q 1.70899,-3.9551 2.29492,-9.2773 0.63477,-5.3711 0.63477,-12.8907 0,-7.42183 -0.63477,-12.89058 -0.58593,-5.46875 -2.34375,-9.27734 -1.70898,-3.75977 -4.6875,-5.66406 -2.92968,-1.9043 -7.56835,-1.9043 -4.58985,0 -7.61719,1.9043 -2.97852,1.90429 -4.73633,5.76172 -1.66016,3.61328 -2.29492,9.42382 -0.58594,5.81055 -0.58594,12.74414 0,7.6172 0.53711,12.7441 0.53711,5.127 2.29492,9.1797 1.61133,3.8086 4.54102,5.8106 2.97851,2.0019 7.86133,2.0019 4.58984,0 7.61718,-1.9043 3.02735,-1.9043 4.6875,-5.7617 z"
           style="font-size:100px;stroke-width:1.33929"
           id="path847" />
        <path
           d="m 220.27503,1000.7823 q 0,19.5801 -6.15235,28.7598 -6.10351,9.1309 -18.99414,9.1309 -13.08593,0 -19.14062,-9.2774 -6.00586,-9.2773 -6.00586,-28.5156 0,-19.38476 6.10352,-28.61328 6.10351,-9.27734 19.04296,-9.27734 13.08594,0 19.0918,9.42383 6.05469,9.375 6.05469,28.36909 z m -12.8418,22.168 q 1.70899,-3.9551 2.29492,-9.2773 0.63477,-5.3711 0.63477,-12.8907 0,-7.42183 -0.63477,-12.89058 -0.58593,-5.46875 -2.34375,-9.27734 -1.70898,-3.75977 -4.6875,-5.66406 -2.92968,-1.9043 -7.56836,-1.9043 -4.58984,0 -7.61718,1.9043 -2.97852,1.90429 -4.73633,5.76172 -1.66016,3.61328 -2.29492,9.42382 -0.58594,5.81055 -0.58594,12.74414 0,7.6172 0.53711,12.7441 0.53711,5.127 2.29492,9.1797 1.61133,3.8086 4.54102,5.8106 2.97851,2.0019 7.86132,2.0019 4.58985,0 7.61719,-1.9043 3.02735,-1.9043 4.6875,-5.7617 z"
           style="font-size:100px;stroke-width:1.33929"
           id="path849" />
      </g>
    </g>
  </g>
</svg>
