<?xml version="1.0" encoding="UTF-8" standalone="no"?>
<svg
   width="1.4212533in"
   height="1.4102215in"
   viewBox="0 0 127.91279 126.91993"
   id="svg2"
   version="1.1"
   inkscape:version="1.1.2 (b8e25be833, 2022-02-05)"
   sodipodi:docname="25.svg"
   xmlns:inkscape="http://www.inkscape.org/namespaces/inkscape"
   xmlns:sodipodi="http://sodipodi.sourceforge.net/DTD/sodipodi-0.dtd"
   xmlns="http://www.w3.org/2000/svg"
   xmlns:svg="http://www.w3.org/2000/svg"
   xmlns:rdf="http://www.w3.org/1999/02/22-rdf-syntax-ns#"
   xmlns:cc="http://creativecommons.org/ns#"
   xmlns:dc="http://purl.org/dc/elements/1.1/">
  <defs
     id="defs4" />
  <sodipodi:namedview
     id="base"
     pagecolor="#ffffff"
     bordercolor="#666666"
     borderopacity="1.0"
     inkscape:pageopacity="0.0"
     inkscape:pageshadow="2"
     inkscape:zoom="1.6245779"
     inkscape:cx="132.0343"
     inkscape:cy="38.779304"
     inkscape:document-units="in"
     inkscape:current-layer="g20"
     showgrid="true"
     units="in"
     inkscape:showpageshadow="false"
     showguides="false"
     inkscape:window-width="1920"
     inkscape:window-height="1009"
     inkscape:window-x="-8"
     inkscape:window-y="-8"
     inkscape:window-maximized="1"
     objecttolerance="10000"
     inkscape:snap-bbox="true"
     guidetolerance="10000"
     inkscape:object-nodes="true"
     fit-margin-top="0"
     fit-margin-left="0"
     fit-margin-right="0"
     fit-margin-bottom="0"
     inkscape:bbox-nodes="false"
     inkscape:document-rotation="0"
     inkscape:snap-bbox-midpoints="true"
     inkscape:snap-global="true"
     inkscape:pagecheckerboard="0" />
  <metadata
     id="metadata7">
    <rdf:RDF>
      <cc:Work
         rdf:about="">
        <dc:format>image/svg+xml</dc:format>
        <dc:type
           rdf:resource="http://purl.org/dc/dcmitype/StillImage" />
      </cc:Work>
    </rdf:RDF>
  </metadata>
  <g
     inkscape:label="Layer 1"
     inkscape:groupmode="layer"
     id="layer1"
     transform="translate(24.321982,-937.83047)">
    <g
       id="g20"
       transform="matrix(0.7,0,0,0.7,15,300.70865)">
      <path
         style="opacity:1;fill:#c0b840;fill-opacity:1;stroke:#000000;stroke-width:10.6525;stroke-miterlimit:4;stroke-dasharray:none;stroke-opacity:1"
         d="m 17.010036,1084.4408 c -30.354952,-6.6191 -55.27074,-29.3447 -64.894261,-59.1896 -1.468873,-4.5553 -2.35085,-11.307 -2.757569,-21.1096 -0.510461,-12.30303 -0.255608,-15.75483 1.741318,-23.58511 7.756834,-30.41574 31.24301,-54.37295 61.453151,-62.68569 10.138273,-2.78968 34.492299,-2.84907 44.573587,-0.1087 23.336135,6.34342 43.243218,22.37238 54.504818,43.88665 25.07797,47.90925 -0.87878,106.80055 -53.581442,121.56685 -11.882091,3.3293 -29.041662,3.8414 -41.039602,1.2252 z"
         id="path824"
         inkscape:connector-curvature="0" />
      <g
         aria-label="25"
         id="text2779"
         style="font-size:98.2143px;line-height:1.25;stroke-width:1.33929">
        <path
           d="m 28.430197,1036.5345 h -48.339852 v -10.0228 q 5.035401,-4.3161 10.0708022,-8.6321 5.0833574,-4.3161 9.44737185,-8.5842 9.20759085,-8.9198 12.61248095,-14.14706 3.404891,-5.27518 3.404891,-11.36562 0,-5.56292 -3.692628,-8.68007 -3.6446714,-3.16511 -10.2146711,-3.16511 -4.3640144,0 -9.4473718,1.5346 -5.0833571,1.5346 -9.9269341,4.69971 h -0.479562 v -10.0708 q 3.404891,-1.67847 9.0637225,-3.0692 5.706788,-1.39073 11.0299265,-1.39073 10.98197,0 17.216277,5.32314 6.234306,5.27518 6.234306,14.3389 0,4.07628 -1.055037,7.62504 -1.00708,3.5008 -3.02124,6.66591 -1.870292,2.97329 -4.411971,5.85069 -2.493722,2.8773 -6.090438,6.3781 -5.1313133,5.0354 -10.59832032,9.7831 -5.46700708,4.6997 -10.21467108,8.728 H 28.430197 Z"
           id="path16529" />
        <path
           d="m 90.293698,1013.8513 q 0,4.9874 -1.822335,9.5432 -1.822336,4.5559 -4.987445,7.673 -3.452847,3.357 -8.248467,5.1793 -4.747664,1.7744 -11.029927,1.7744 -5.850656,0 -11.269707,-1.2469 -5.419051,-1.1989 -9.159635,-2.9253 v -10.1188 h 0.671387 q 3.932409,2.4938 9.207591,4.2681 5.275182,1.7265 10.35854,1.7265 3.40489,0 6.569999,-0.9592 3.213066,-0.9591 5.706788,-3.3569 2.110073,-2.0621 3.16511,-4.9395 1.102992,-2.8774 1.102992,-6.6659 0,-3.6926 -1.294817,-6.2343 -1.246861,-2.5417 -3.500803,-4.0763 -2.493722,-1.8223 -6.090438,-2.5417 -3.548758,-0.7673 -7.960729,-0.7673 -4.220146,0 -8.152554,0.5755 -3.884453,0.5755 -6.713869,1.151 v -36.78244 h 42.968757 v 8.39234 h -33.71321 v 18.99065 q 2.062117,-0.19182 4.220146,-0.28773 2.158029,-0.0959 3.740584,-0.0959 5.8027,0 10.166715,1.00708 4.364014,0.95913 8.008685,3.45285 3.836497,2.63759 5.94657,6.80977 2.110072,4.1722 2.110072,10.4545 z"
           id="path16531" />
      </g>
    </g>
  </g>
</svg>
