<?xml version="1.0" encoding="UTF-8" standalone="no"?>
<svg
   width="1.343375in"
   height="1.0416667in"
   viewBox="0 0 120.90374 93.750006"
   id="svg2"
   version="1.1"
   inkscape:version="1.2.2 (b0a8486541, 2022-12-01)"
   sodipodi:docname="25.svg"
   xmlns:inkscape="http://www.inkscape.org/namespaces/inkscape"
   xmlns:sodipodi="http://sodipodi.sourceforge.net/DTD/sodipodi-0.dtd"
   xmlns="http://www.w3.org/2000/svg"
   xmlns:svg="http://www.w3.org/2000/svg"
   xmlns:rdf="http://www.w3.org/1999/02/22-rdf-syntax-ns#"
   xmlns:cc="http://creativecommons.org/ns#"
   xmlns:dc="http://purl.org/dc/elements/1.1/">
  <defs
     id="defs4" />
  <sodipodi:namedview
     id="base"
     pagecolor="#ffffff"
     bordercolor="#666666"
     borderopacity="1.0"
     inkscape:pageopacity="0.0"
     inkscape:pageshadow="2"
     inkscape:zoom="1.6245779"
     inkscape:cx="9.5409398"
     inkscape:cy="194.51206"
     inkscape:document-units="in"
     inkscape:current-layer="layer1"
     showgrid="true"
     units="in"
     inkscape:showpageshadow="false"
     showguides="false"
     inkscape:window-width="1920"
     inkscape:window-height="1031"
     inkscape:window-x="1920"
     inkscape:window-y="24"
     inkscape:window-maximized="1"
     objecttolerance="10000"
     inkscape:snap-bbox="true"
     guidetolerance="10000"
     inkscape:object-nodes="true"
     fit-margin-top="0"
     fit-margin-left="0"
     fit-margin-right="0"
     fit-margin-bottom="0"
     inkscape:bbox-nodes="false"
     inkscape:document-rotation="0"
     inkscape:snap-bbox-midpoints="true"
     inkscape:snap-global="true"
     inkscape:pagecheckerboard="0"
     inkscape:deskcolor="#d1d1d1" />
  <metadata
     id="metadata7">
    <rdf:RDF>
      <cc:Work
         rdf:about="">
        <dc:format>image/svg+xml</dc:format>
        <dc:type
           rdf:resource="http://purl.org/dc/dcmitype/StillImage" />
      </cc:Work>
    </rdf:RDF>
  </metadata>
  <g
     inkscape:label="Layer 1"
     inkscape:groupmode="layer"
     id="layer1"
     transform="translate(177.10552,-792.85307)">
    <rect
       style="fill:#006600;fill-opacity:1;stroke:#000000;stroke-width:7.03122;stroke-linecap:round;stroke-dasharray:none;stroke-opacity:1"
       id="rect1004"
       width="113.87252"
       height="86.718781"
       x="-173.5899"
       y="796.36865" />
    <g
       aria-label="25"
       id="text495"
       style="font-weight:600;font-size:70.9429px;line-height:1.25;font-family:FreeSans;-inkscape-font-specification:'FreeSans, Semi-Bold';fill:#ffffff;stroke-width:0.937503">
      <path
         d="m -119.24305,829.193 q 0,4.18563 -1.84451,7.59089 -1.77357,3.40526 -4.54035,5.74637 -2.76677,2.27018 -5.67543,4.25658 -2.90866,1.91546 -5.60449,4.25657 -2.69583,2.27017 -3.83092,4.68223 h 21.28287 v 8.86787 h -34.19447 q 0.35471,-6.95241 2.76677,-10.99615 2.483,-4.11469 8.86786,-8.58409 8.30032,-5.81732 10.57049,-8.5841 2.27018,-2.83771 2.27018,-7.02334 0,-3.75998 -1.91546,-5.88826 -1.84452,-2.19923 -5.17883,-2.19923 -3.40526,0 -5.32072,2.34111 -1.84452,2.34112 -1.84452,6.52675 v 1.63169 h -9.50634 q -0.0709,-0.78038 -0.0709,-1.77358 0,-7.9456 4.32752,-12.34406 4.39846,-4.4694 12.20218,-4.4694 7.9456,0 12.55689,4.32751 4.68223,4.32752 4.68223,11.63464 z"
         id="path711" />
      <path
         d="m -81.643325,814.29499 v 8.86786 H -102.4296 l -1.63168,10.49955 q 4.04374,-3.05054 8.725975,-3.05054 6.952404,0 11.279921,4.82411 4.39846,4.82412 4.39846,12.5569 0,8.15843 -5.036946,13.19538 -5.036946,5.03694 -13.124437,5.03694 -7.307123,0 -11.918403,-4.04374 -4.54035,-4.11469 -4.68224,-10.71238 h 9.79012 q 0.35472,6.24297 6.952409,6.24297 3.759974,0 5.888261,-2.55394 2.19923,-2.55394 2.19923,-6.9524 0,-4.54035 -2.19923,-7.09429 -2.128287,-2.62489 -5.888261,-2.62489 -4.753179,0 -6.384859,3.83091 h -8.93881 l 4.46941,-28.02244 z"
         id="path713" />
    </g>
  </g>
</svg>
