<?xml version="1.0" encoding="UTF-8" standalone="no"?>
<svg
   width="1.9705302in"
   height="1.955235in"
   viewBox="0 0 177.3477 175.97115"
   id="svg2"
   version="1.1"
   inkscape:version="1.1.2 (b8e25be833, 2022-02-05)"
   sodipodi:docname="250.svg"
   xmlns:inkscape="http://www.inkscape.org/namespaces/inkscape"
   xmlns:sodipodi="http://sodipodi.sourceforge.net/DTD/sodipodi-0.dtd"
   xmlns="http://www.w3.org/2000/svg"
   xmlns:svg="http://www.w3.org/2000/svg"
   xmlns:rdf="http://www.w3.org/1999/02/22-rdf-syntax-ns#"
   xmlns:cc="http://creativecommons.org/ns#"
   xmlns:dc="http://purl.org/dc/elements/1.1/">
  <defs
     id="defs4" />
  <sodipodi:namedview
     id="base"
     pagecolor="#ffffff"
     bordercolor="#666666"
     borderopacity="1.0"
     inkscape:pageopacity="0.0"
     inkscape:pageshadow="2"
     inkscape:zoom="0.5"
     inkscape:cx="133"
     inkscape:cy="64"
     inkscape:document-units="in"
     inkscape:current-layer="g20"
     showgrid="true"
     units="in"
     inkscape:showpageshadow="false"
     showguides="false"
     inkscape:window-width="1920"
     inkscape:window-height="1009"
     inkscape:window-x="-8"
     inkscape:window-y="-8"
     inkscape:window-maximized="1"
     objecttolerance="10000"
     inkscape:snap-bbox="true"
     guidetolerance="10000"
     inkscape:object-nodes="true"
     fit-margin-top="0"
     fit-margin-left="0"
     fit-margin-right="0"
     fit-margin-bottom="0"
     inkscape:bbox-nodes="false"
     inkscape:document-rotation="0"
     inkscape:snap-bbox-midpoints="true"
     inkscape:snap-global="true"
     inkscape:pagecheckerboard="0" />
  <metadata
     id="metadata7">
    <rdf:RDF>
      <cc:Work
         rdf:about="">
        <dc:format>image/svg+xml</dc:format>
        <dc:type
           rdf:resource="http://purl.org/dc/dcmitype/StillImage" />
      </cc:Work>
    </rdf:RDF>
  </metadata>
  <g
     inkscape:label="Layer 1"
     inkscape:groupmode="layer"
     id="layer1"
     transform="translate(25.233284,-913.30491)">
    <g
       id="g20"
       transform="matrix(0.7,0,0,0.7,15,300.70865)">
      <path
         style="opacity:1;fill:#c0b840;fill-opacity:1;stroke:#000000;stroke-width:14.7694;stroke-miterlimit:4;stroke-dasharray:none;stroke-opacity:1"
         d="m 43.991967,1116.7538 c -42.0863392,-9.1772 -76.631421,-40.6856 -89.974179,-82.0648 -2.036553,-6.3158 -3.259391,-15.6769 -3.823296,-29.2679 -0.707741,-17.05782 -0.354394,-21.84372 2.414291,-32.70012 10.754646,-42.17067 43.3176081,-75.38671 85.203171,-86.9121 14.056448,-3.86782 47.822662,-3.95016 61.8001,-0.15071 32.354936,8.79498 59.955576,31.01871 75.569486,60.84768 34.76995,66.42495 -1.2184,148.07615 -74.28925,168.54925 -16.474204,4.616 -40.265496,5.326 -56.900323,1.6987 z"
         id="path824"
         inkscape:connector-curvature="0" />
      <g
         aria-label="250"
         id="text10934"
         style="font-size:98.2143px;line-height:1.25;stroke-width:1.33929">
        <path
           d="m 30.979738,1036.5345 h -48.339852 v -10.0228 q 5.035401,-4.3161 10.0708027,-8.6321 5.0833574,-4.3161 9.4473718,-8.5842 9.2075905,-8.9198 12.6124815,-14.14706 3.40489,-5.27518 3.40489,-11.36562 0,-5.56292 -3.692628,-8.68007 -3.644671,-3.16511 -10.2146706,-3.16511 -4.36401438,0 -9.4473718,1.5346 -5.0833576,1.5346 -9.9269336,4.69971 h -0.479562 v -10.0708 q 3.40489,-1.67847 9.0637219,-3.0692 5.70678809,-1.39073 11.0299265,-1.39073 10.9819706,0 17.2162766,5.32314 6.234306,5.27518 6.234306,14.3389 0,4.07628 -1.055036,7.62504 -1.00708,3.5008 -3.021241,6.66591 -1.870292,2.97329 -4.41197,5.85069 -2.493723,2.8773 -6.090438,6.3781 -5.1313138,5.0354 -10.5983209,9.7831 -5.467007,4.6997 -10.214671,8.728 H 30.979738 Z"
           id="path17870" />
        <path
           d="m 92.84324,1013.8513 q 0,4.9874 -1.822336,9.5432 -1.822335,4.5559 -4.987445,7.673 -3.452846,3.357 -8.248467,5.1793 -4.747664,1.7744 -11.029926,1.7744 -5.850657,0 -11.269708,-1.2469 -5.41905,-1.1989 -9.159634,-2.9253 v -10.1188 h 0.671387 q 3.932408,2.4938 9.20759,4.2681 5.275183,1.7265 10.35854,1.7265 3.40489,0 6.57,-0.9592 3.213065,-0.9591 5.706788,-3.3569 2.110073,-2.0621 3.165109,-4.9395 1.102993,-2.8774 1.102993,-6.6659 0,-3.6926 -1.294818,-6.2343 -1.246861,-2.5417 -3.500802,-4.0763 -2.493723,-1.8223 -6.090438,-2.5417 -3.548759,-0.7673 -7.96073,-0.7673 -4.220145,0 -8.152554,0.5755 -3.884452,0.5755 -6.713868,1.151 v -36.78244 h 42.968757 v 8.39234 h -33.71321 v 18.99065 q 2.062116,-0.19182 4.220146,-0.28773 2.158029,-0.0959 3.740583,-0.0959 5.802701,0 10.166715,1.00708 4.364015,0.95913 8.008686,3.45285 3.836496,2.63759 5.946569,6.80977 2.110073,4.1722 2.110073,10.4545 z"
           id="path17872" />
        <path
           d="m 155.76178,1000.8072 q 0,19.2304 -6.04248,28.2462 -5.99453,8.9678 -18.65497,8.9678 -12.85226,0 -18.79883,-9.1117 -5.89861,-9.1117 -5.89861,-28.0064 0,-19.03862 5.99453,-28.10235 5.99452,-9.11168 18.70291,-9.11168 12.85227,0 18.75088,9.25555 5.94657,9.20759 5.94657,27.86258 z m -12.61248,21.7721 q 1.67846,-3.8845 2.25394,-9.1117 0.62343,-5.2752 0.62343,-12.6604 0,-7.28937 -0.62343,-12.66046 -0.57548,-5.3711 -2.3019,-9.11168 -1.67847,-3.69263 -4.60379,-5.56292 -2.87738,-1.87029 -7.43322,-1.87029 -4.50788,0 -7.48116,1.87029 -2.92533,1.87029 -4.65176,5.65883 -1.63051,3.54876 -2.25394,9.25555 -0.57547,5.70679 -0.57547,12.51658 0,7.4812 0.52752,12.5166 0.52752,5.0354 2.25394,9.0157 1.58255,3.7406 4.45993,5.7068 2.92532,1.9662 7.72094,1.9662 4.50789,0 7.48117,-1.8703 2.97329,-1.8703 4.6038,-5.6588 z"
           id="path17874" />
      </g>
    </g>
  </g>
</svg>
