<?xml version="1.0" encoding="UTF-8" standalone="no"?>
<svg
   xmlns:dc="http://purl.org/dc/elements/1.1/"
   xmlns:cc="http://creativecommons.org/ns#"
   xmlns:rdf="http://www.w3.org/1999/02/22-rdf-syntax-ns#"
   xmlns:svg="http://www.w3.org/2000/svg"
   xmlns="http://www.w3.org/2000/svg"
   xmlns:sodipodi="http://sodipodi.sourceforge.net/DTD/sodipodi-0.dtd"
   xmlns:inkscape="http://www.inkscape.org/namespaces/inkscape"
   width="1.4212533in"
   height="1.4102215in"
   viewBox="0 0 127.91279 126.91993"
   id="svg2"
   version="1.1"
   inkscape:version="1.0.1 (3bc2e813f5, 2020-09-07)"
   sodipodi:docname="50.svg">
  <defs
     id="defs4" />
  <sodipodi:namedview
     id="base"
     pagecolor="#ffffff"
     bordercolor="#666666"
     borderopacity="1.0"
     inkscape:pageopacity="0.0"
     inkscape:pageshadow="2"
     inkscape:zoom="1.6245779"
     inkscape:cx="131.94492"
     inkscape:cy="38.832272"
     inkscape:document-units="in"
     inkscape:current-layer="g20"
     showgrid="true"
     units="in"
     inkscape:showpageshadow="false"
     showguides="false"
     inkscape:window-width="1920"
     inkscape:window-height="1017"
     inkscape:window-x="1912"
     inkscape:window-y="-8"
     inkscape:window-maximized="1"
     objecttolerance="10000"
     inkscape:snap-bbox="true"
     guidetolerance="10000"
     inkscape:object-nodes="true"
     fit-margin-top="0"
     fit-margin-left="0"
     fit-margin-right="0"
     fit-margin-bottom="0"
     inkscape:bbox-nodes="false"
     inkscape:document-rotation="0"
     inkscape:snap-bbox-midpoints="true"
     inkscape:snap-global="true" />
  <metadata
     id="metadata7">
    <rdf:RDF>
      <cc:Work
         rdf:about="">
        <dc:format>image/svg+xml</dc:format>
        <dc:type
           rdf:resource="http://purl.org/dc/dcmitype/StillImage" />
        <dc:title></dc:title>
      </cc:Work>
    </rdf:RDF>
  </metadata>
  <g
     inkscape:label="Layer 1"
     inkscape:groupmode="layer"
     id="layer1"
     transform="translate(24.321982,-937.83047)">
    <g
       id="g20"
       transform="matrix(0.7,0,0,0.7,15,300.70865)">
      <path
         style="opacity:1;fill:#c0b840;fill-opacity:1;stroke:#000000;stroke-width:10.6525;stroke-miterlimit:4;stroke-dasharray:none;stroke-opacity:1"
         d="m 17.010036,1084.4408 c -30.354952,-6.6191 -55.27074,-29.3447 -64.894261,-59.1896 -1.468873,-4.5553 -2.35085,-11.307 -2.757569,-21.1096 -0.510461,-12.30303 -0.255608,-15.75483 1.741318,-23.58511 7.756834,-30.41574 31.24301,-54.37295 61.453151,-62.68569 10.138273,-2.78968 34.492299,-2.84907 44.573587,-0.1087 23.336135,6.34342 43.243218,22.37238 54.504818,43.88665 25.07797,47.90925 -0.87878,106.80055 -53.581442,121.56685 -11.882091,3.3293 -29.041662,3.8414 -41.039602,1.2252 z"
         id="path824"
         inkscape:connector-curvature="0" />
      <g
         aria-label="50"
         id="text837"
         style="font-style:normal;font-weight:normal;font-size:53.5714px;line-height:1.25;font-family:sans-serif;fill:#000000;fill-opacity:1;stroke:none;stroke-width:1.33929">
        <path
           d="m 26.842413,1014.0636 q 0,5.0781 -1.855469,9.7168 -1.855469,4.6387 -5.078125,7.8125 -3.515625,3.418 -8.398437,5.2734 -4.8339847,1.8067 -11.23046905,1.8067 -5.95703125,0 -11.47460895,-1.2696 -5.517579,-1.2207 -9.326172,-2.9785 v -10.3027 h 0.683593 q 4.003907,2.5391 9.375,4.3457 5.3710942,1.7578 10.54687545,1.7578 3.46679685,0 6.68945315,-0.9766 3.2714844,-0.9765 5.8105464,-3.4179 2.148438,-2.0996 3.222657,-5.0293 1.123047,-2.9297 1.123047,-6.7871 0,-3.7598 -1.31836,-6.3477 -1.269531,-2.5879 -3.564453,-4.1504 -2.5390624,-1.8554 -6.2011718,-2.5879 -3.6132813,-0.7812 -8.1054688,-0.7812 -4.296875,0 -8.3007814,0.5859 -3.955078,0.586 -6.835937,1.1719 v -37.45118 h 43.75 v 8.54493 H -7.9720402 v 19.33593 q 2.0996094,-0.19531 4.296875,-0.29297 2.1972656,-0.0976 3.80859377,-0.0976 5.90820313,0 10.35156243,1.02539 4.443359,0.97656 8.154297,3.51562 3.90625,2.68555 6.054687,6.93363 2.148438,4.248 2.148438,10.6445 z"
           style="font-size:100px;stroke-width:1.33929"
           id="path834" />
        <path
           d="m 90.904913,1000.7823 q 0,19.5801 -6.152344,28.7598 -6.103515,9.1309 -18.99414,9.1309 -13.085938,0 -19.140625,-9.2774 -6.00586,-9.2773 -6.00586,-28.5156 0,-19.38476 6.103516,-28.61328 6.103515,-9.27734 19.042969,-9.27734 13.085937,0 19.091796,9.42383 6.054688,9.375 6.054688,28.36909 z m -12.841797,22.168 q 1.708984,-3.9551 2.294922,-9.2773 0.634766,-5.3711 0.634766,-12.8907 0,-7.42183 -0.634766,-12.89058 -0.585938,-5.46875 -2.34375,-9.27734 -1.708984,-3.75977 -4.6875,-5.66406 -2.929688,-1.9043 -7.568359,-1.9043 -4.589844,0 -7.617188,1.9043 -2.978516,1.90429 -4.736328,5.76172 -1.660156,3.61328 -2.294922,9.42382 -0.585937,5.81055 -0.585937,12.74414 0,7.6172 0.537109,12.7441 0.537109,5.127 2.294922,9.1797 1.611328,3.8086 4.541015,5.8106 2.978516,2.0019 7.861329,2.0019 4.589843,0 7.617187,-1.9043 3.027344,-1.9043 4.6875,-5.7617 z"
           style="font-size:100px;stroke-width:1.33929"
           id="path836" />
      </g>
    </g>
  </g>
</svg>
