<?xml version="1.0" encoding="UTF-8" standalone="no"?>
<svg
   xmlns:dc="http://purl.org/dc/elements/1.1/"
   xmlns:cc="http://creativecommons.org/ns#"
   xmlns:rdf="http://www.w3.org/1999/02/22-rdf-syntax-ns#"
   xmlns:svg="http://www.w3.org/2000/svg"
   xmlns="http://www.w3.org/2000/svg"
   xmlns:sodipodi="http://sodipodi.sourceforge.net/DTD/sodipodi-0.dtd"
   xmlns:inkscape="http://www.inkscape.org/namespaces/inkscape"
   width="1.9705302in"
   height="1.955235in"
   viewBox="0 0 177.3477 175.97115"
   id="svg2"
   version="1.1"
   inkscape:version="1.0.1 (3bc2e813f5, 2020-09-07)"
   sodipodi:docname="500.svg">
  <defs
     id="defs4" />
  <sodipodi:namedview
     id="base"
     pagecolor="#ffffff"
     bordercolor="#666666"
     borderopacity="1.0"
     inkscape:pageopacity="0.0"
     inkscape:pageshadow="2"
     inkscape:zoom="1.6245779"
     inkscape:cx="132.91697"
     inkscape:cy="64.992869"
     inkscape:document-units="in"
     inkscape:current-layer="g20"
     showgrid="true"
     units="in"
     inkscape:showpageshadow="false"
     showguides="false"
     inkscape:window-width="1920"
     inkscape:window-height="1017"
     inkscape:window-x="1912"
     inkscape:window-y="-8"
     inkscape:window-maximized="1"
     objecttolerance="10000"
     inkscape:snap-bbox="true"
     guidetolerance="10000"
     inkscape:object-nodes="true"
     fit-margin-top="0"
     fit-margin-left="0"
     fit-margin-right="0"
     fit-margin-bottom="0"
     inkscape:bbox-nodes="false"
     inkscape:document-rotation="0"
     inkscape:snap-bbox-midpoints="true"
     inkscape:snap-global="true" />
  <metadata
     id="metadata7">
    <rdf:RDF>
      <cc:Work
         rdf:about="">
        <dc:format>image/svg+xml</dc:format>
        <dc:type
           rdf:resource="http://purl.org/dc/dcmitype/StillImage" />
        <dc:title></dc:title>
      </cc:Work>
    </rdf:RDF>
  </metadata>
  <g
     inkscape:label="Layer 1"
     inkscape:groupmode="layer"
     id="layer1"
     transform="translate(25.233284,-913.30491)">
    <g
       id="g20"
       transform="matrix(0.7,0,0,0.7,15,300.70865)">
      <path
         style="opacity:1;fill:#c0b840;fill-opacity:1;stroke:#000000;stroke-width:14.7694;stroke-miterlimit:4;stroke-dasharray:none;stroke-opacity:1"
         d="m 43.991967,1116.7538 c -42.0863392,-9.1772 -76.631421,-40.6856 -89.974179,-82.0648 -2.036553,-6.3158 -3.259391,-15.6769 -3.823296,-29.2679 -0.707741,-17.05782 -0.354394,-21.84372 2.414291,-32.70012 10.754646,-42.17067 43.3176081,-75.38671 85.203171,-86.9121 14.056448,-3.86782 47.822662,-3.95016 61.8001,-0.15071 32.354936,8.79498 59.955576,31.01871 75.569486,60.84768 34.76995,66.42495 -1.2184,148.07615 -74.28925,168.54925 -16.474204,4.616 -40.265496,5.326 -56.900323,1.6987 z"
         id="path824"
         inkscape:connector-curvature="0" />
      <g
         aria-label="500"
         id="text837"
         style="font-style:normal;font-weight:normal;font-size:53.5714px;line-height:1.25;font-family:sans-serif;fill:#000000;fill-opacity:1;stroke:none;stroke-width:1.33929">
        <path
           d="m 29.064091,1014.0636 q 0,5.0781 -1.855469,9.7168 -1.855469,4.6387 -5.078125,7.8125 -3.515625,3.418 -8.398438,5.2734 -4.8339839,1.8067 -11.2304683,1.8067 -5.9570312,0 -11.4746093,-1.2696 -5.5175784,-1.2207 -9.3261724,-2.9785 v -10.3027 h 0.683594 q 4.003906,2.5391 9.3750002,4.3457 5.3710938,1.7578 10.546875,1.7578 3.4667969,0 6.6894532,-0.9766 3.2714846,-0.9765 5.8105466,-3.4179 2.148438,-2.0996 3.222656,-5.0293 1.123047,-2.9297 1.123047,-6.7871 0,-3.7598 -1.318359,-6.3477 -1.269531,-2.5879 -3.564453,-4.1504 -2.539063,-1.8554 -6.201172,-2.5879 -3.6132813,-0.7812 -8.10546877,-0.7812 -4.29687503,0 -8.30078123,0.5859 -3.955078,0.586 -6.835938,1.1719 v -37.45118 h 43.75 v 8.54493 H -5.7503624 v 19.33593 q 2.0996094,-0.19531 4.296875,-0.29297 2.19726563,-0.0976 3.8085938,-0.0976 5.9082031,0 10.3515626,1.02539 4.443359,0.97656 8.154297,3.51562 3.90625,2.68555 6.054687,6.93363 2.148438,4.248 2.148438,10.6445 z"
           style="font-size:100px;stroke-width:1.33929"
           id="path834" />
        <path
           d="m 93.126591,1000.7823 q 0,19.5801 -6.152344,28.7598 -6.103516,9.1309 -18.994141,9.1309 -13.085937,0 -19.140625,-9.2774 -6.005859,-9.2773 -6.005859,-28.5156 0,-19.38476 6.103516,-28.61328 6.103515,-9.27734 19.042968,-9.27734 13.085938,0 19.091797,9.42383 6.054688,9.375 6.054688,28.36909 z m -12.841797,22.168 q 1.708984,-3.9551 2.294922,-9.2773 0.634765,-5.3711 0.634765,-12.8907 0,-7.42183 -0.634765,-12.89058 -0.585938,-5.46875 -2.34375,-9.27734 -1.708985,-3.75977 -4.6875,-5.66406 -2.929688,-1.9043 -7.56836,-1.9043 -4.589843,0 -7.617187,1.9043 -2.978516,1.90429 -4.736328,5.76172 -1.660157,3.61328 -2.294922,9.42382 -0.585938,5.81055 -0.585938,12.74414 0,7.6172 0.53711,12.7441 0.537109,5.127 2.294922,9.1797 1.611328,3.8086 4.541015,5.8106 2.978516,2.0019 7.861328,2.0019 4.589844,0 7.617188,-1.9043 3.027344,-1.9043 4.6875,-5.7617 z"
           style="font-size:100px;stroke-width:1.33929"
           id="path836" />
        <path
           d="m 156.70081,1000.7823 q 0,19.5801 -6.15234,28.7598 -6.10352,9.1309 -18.99414,9.1309 -13.08594,0 -19.14063,-9.2774 -6.00586,-9.2773 -6.00586,-28.5156 0,-19.38476 6.10352,-28.61328 6.10351,-9.27734 19.04297,-9.27734 13.08593,0 19.09179,9.42383 6.05469,9.375 6.05469,28.36909 z m -12.8418,22.168 q 1.70899,-3.9551 2.29492,-9.2773 0.63477,-5.3711 0.63477,-12.8907 0,-7.42183 -0.63477,-12.89058 -0.58593,-5.46875 -2.34375,-9.27734 -1.70898,-3.75977 -4.6875,-5.66406 -2.92968,-1.9043 -7.56835,-1.9043 -4.58985,0 -7.61719,1.9043 -2.97852,1.90429 -4.73633,5.76172 -1.66016,3.61328 -2.29492,9.42382 -0.58594,5.81055 -0.58594,12.74414 0,7.6172 0.53711,12.7441 0.53711,5.127 2.29492,9.1797 1.61133,3.8086 4.54102,5.8106 2.97851,2.0019 7.86133,2.0019 4.58984,0 7.61718,-1.9043 3.02735,-1.9043 4.6875,-5.7617 z"
           style="font-size:100px;stroke-width:1.33929"
           id="path838" />
      </g>
    </g>
  </g>
</svg>
