<?xml version="1.0" encoding="UTF-8" standalone="no"?>
<svg
   width="1.5555555in"
   height="2.3333333in"
   viewBox="0 0 139.99999 209.99999"
   id="svg2"
   version="1.1"
   inkscape:version="1.2.2 (b0a8486541, 2022-12-01)"
   sodipodi:docname="facedown.svg"
   xmlns:inkscape="http://www.inkscape.org/namespaces/inkscape"
   xmlns:sodipodi="http://sodipodi.sourceforge.net/DTD/sodipodi-0.dtd"
   xmlns="http://www.w3.org/2000/svg"
   xmlns:svg="http://www.w3.org/2000/svg"
   xmlns:rdf="http://www.w3.org/1999/02/22-rdf-syntax-ns#"
   xmlns:cc="http://creativecommons.org/ns#"
   xmlns:dc="http://purl.org/dc/elements/1.1/">
  <defs
     id="defs4" />
  <sodipodi:namedview
     id="base"
     pagecolor="#ffffff"
     bordercolor="#666666"
     borderopacity="1.0"
     inkscape:pageopacity="0.0"
     inkscape:pageshadow="2"
     inkscape:zoom="0.81228895"
     inkscape:cx="-494.28224"
     inkscape:cy="-29.546136"
     inkscape:document-units="in"
     inkscape:current-layer="g20"
     showgrid="true"
     units="in"
     inkscape:showpageshadow="false"
     showguides="false"
     inkscape:window-width="1920"
     inkscape:window-height="1031"
     inkscape:window-x="1920"
     inkscape:window-y="24"
     inkscape:window-maximized="1"
     objecttolerance="10000"
     inkscape:snap-bbox="true"
     guidetolerance="10000"
     inkscape:object-nodes="true"
     fit-margin-top="0"
     fit-margin-left="0"
     fit-margin-right="0"
     fit-margin-bottom="0"
     inkscape:bbox-nodes="true"
     inkscape:document-rotation="0"
     inkscape:pagecheckerboard="0"
     inkscape:snap-global="false"
     inkscape:deskcolor="#d1d1d1" />
  <metadata
     id="metadata7">
    <rdf:RDF>
      <cc:Work
         rdf:about="">
        <dc:format>image/svg+xml</dc:format>
        <dc:type
           rdf:resource="http://purl.org/dc/dcmitype/StillImage" />
      </cc:Work>
    </rdf:RDF>
  </metadata>
  <g
     inkscape:label="Layer 1"
     inkscape:groupmode="layer"
     id="layer1"
     transform="translate(20.000001,-897.36217)">
    <g
       id="g20"
       transform="matrix(0.7,0,0,0.7,15,300.70865)">
      <rect
         y="858.47925"
         x="-43.882919"
         height="287.76584"
         width="187.76584"
         id="rect4175"
         style="opacity:1;fill:#e5e5e5;fill-opacity:1;stroke:#000000;stroke-width:12.23416424;stroke-linecap:round;stroke-linejoin:round;stroke-miterlimit:4;stroke-dasharray:none;stroke-opacity:1" />
      <g
         aria-label="SHIP"
         transform="rotate(90)"
         id="text2762"
         style="font-weight:bold;font-size:85.7698px;line-height:1.25;-inkscape-font-specification:'sans-serif, Bold';stroke-width:1.33929">
        <path
           d="m 938.26516,-79.33679 v 13.234012 q -5.15122,-2.303388 -10.05115,-3.476022 -4.89994,-1.172634 -9.25543,-1.172634 -5.77941,0 -8.54348,1.591432 -2.76406,1.591432 -2.76406,4.941814 0,2.512787 1.84271,3.9367 1.88459,1.382033 6.78452,2.387148 l 6.86829,1.382033 q 10.42806,2.093989 14.82544,6.365727 4.39738,4.271738 4.39738,12.145137 0,10.344307 -6.15633,15.411761 -6.11445,5.025574 -18.72027,5.025574 -5.94692,0 -11.93573,-1.130754 -5.98881,-1.130754 -11.97762,-3.350383 v -13.61093 q 5.98881,3.182864 11.55882,4.816175 5.61189,1.591432 10.80498,1.591432 5.27686,0 8.0828,-1.758951 2.80595,-1.758951 2.80595,-5.025574 0,-2.931585 -1.92647,-4.523017 -1.88459,-1.591431 -7.58024,-2.847825 l -6.24009,-1.382033 q -9.38107,-2.010229 -13.73657,-6.407607 -4.31362,-4.397377 -4.31362,-11.851979 0,-9.339192 6.03069,-14.364766 6.03069,-5.025574 17.33823,-5.025574 5.15121,0 10.59559,0.795716 5.44437,0.753836 11.26566,2.303388 z"
           id="path5533" />
        <path
           d="m 956.52474,-81.30514 h 16.12372 v 23.829598 h 23.78772 V -81.30514 h 16.12372 v 62.526518 h -16.12372 v -26.509903 h -23.78772 v 26.509903 h -16.12372 z"
           id="path5535" />
        <path
           d="m 1028.3067,-81.30514 h 16.1237 v 62.526518 h -16.1237 z"
           id="path5537" />
        <path
           d="m 1060.2191,-81.30514 h 26.7612 q 11.9357,0 18.3014,5.318733 6.4076,5.276853 6.4076,15.076722 0,9.84175 -6.4076,15.160482 -6.3657,5.276853 -18.3014,5.276853 h -10.6375 v 21.693728 h -16.1237 z m 16.1237,11.68446 v 17.46387 h 8.9204 q 4.6905,0 7.2452,-2.261508 2.5547,-2.303388 2.5547,-6.491367 0,-4.187978 -2.5547,-6.449486 -2.5547,-2.261509 -7.2452,-2.261509 z"
           id="path5539" />
      </g>
    </g>
  </g>
</svg>
