<?xml version="1.0" encoding="UTF-8" standalone="no"?>
<!-- Generator: Adobe Illustrator 24.0.1, SVG Export Plug-In . SVG Version: 6.00 Build 0)  -->

<svg
   version="1.1"
   id="Capa_1"
   x="0px"
   y="0px"
   viewBox="0 0 195.6 424.10001"
   xml:space="preserve"
   sodipodi:docname="peon-01.svg"
   width="195.60001"
   height="424.10001"
   inkscape:version="1.2.2 (b0a8486541, 2022-12-01)"
   xmlns:inkscape="http://www.inkscape.org/namespaces/inkscape"
   xmlns:sodipodi="http://sodipodi.sourceforge.net/DTD/sodipodi-0.dtd"
   xmlns="http://www.w3.org/2000/svg"
   xmlns:svg="http://www.w3.org/2000/svg"><defs
   id="defs9" /><sodipodi:namedview
   id="namedview7"
   pagecolor="#ffffff"
   bordercolor="#666666"
   borderopacity="1.0"
   inkscape:showpageshadow="2"
   inkscape:pageopacity="0.0"
   inkscape:pagecheckerboard="0"
   inkscape:deskcolor="#d1d1d1"
   showgrid="false"
   inkscape:zoom="1.9382221"
   inkscape:cx="97.770012"
   inkscape:cy="212.05"
   inkscape:window-width="1920"
   inkscape:window-height="1031"
   inkscape:window-x="1920"
   inkscape:window-y="24"
   inkscape:window-maximized="1"
   inkscape:current-layer="Capa_1" />
<style
   type="text/css"
   id="style2">
	.st0{fill:#065E2E;}
</style>
<path
   class="st0"
   d="m 195.6,348.3 c 0,-11 -16.8,-35.3 -42.3,-52.2 L 137.5,167.9 c 15,-2.8 24.7,-7.1 24.7,-11.9 0,-5.3 -11.8,-17.3 -29.6,-25.3 21,-12.1 35.2,-34.7 35.2,-60.7 0,-38.7 -31.3,-70 -70,-70 -38.7,0 -70,31.3 -70,70 0,26 14.2,48.6 35.2,60.7 -17.8,8 -29.6,20 -29.6,25.3 0,4.8 9.7,9.1 24.7,11.9 L 42.3,296.1 C 16.7,313.1 0,337.4 0,348.3 0,352.2 2.1,356 6.1,359.5 2.2,371.7 0,388.1 0,392 c 0,17.7 43.8,32.1 97.8,32.1 54,0 97.8,-14.4 97.8,-32.1 0,-4 -2.2,-19.9 -6.3,-32.4 4.1,-3.4 6.3,-7.3 6.3,-11.3 z"
   id="path4"
   style="fill:#000000" />
</svg>
